# Blender 4.3.2
# www.blender.org
mtllib planet_ring.mtl
o Cylinder
v 0.000000 -0.024091 -1.621576
v 0.953139 -0.024091 -1.311883
v 1.542211 -0.024091 -0.501095
v 1.542211 -0.024091 0.501095
v 0.953139 -0.024091 1.311883
v 0.000000 -0.024091 1.621576
v -0.953139 -0.024091 1.311883
v -1.542211 -0.024091 0.501095
v -1.542211 -0.024091 -0.501095
v -0.953139 -0.024091 -1.311883
v -0.000000 -0.024091 -1.306491
v 0.767936 -0.024091 -1.056974
v 1.242547 -0.024091 -0.403728
v 1.242547 -0.024091 0.403728
v 0.767936 -0.024091 1.056974
v -0.000000 -0.024091 1.306491
v -0.767936 -0.024091 1.056974
v -1.242547 -0.024091 0.403728
v -1.242547 -0.024091 -0.403728
v -0.767936 -0.024091 -1.056974
vn -0.0000 -1.0000 -0.0000
vt 0.978254 0.175836
vt 0.891068 0.055836
vt 0.750000 0.490000
vt 0.891068 0.444164
vt 0.521746 0.175836
vt 0.521746 0.324164
vt 0.750000 0.010000
vt 0.978254 0.324164
vt 0.608932 0.444164
vt 0.608932 0.055836
s 0
f 4/1/1 5/2/1 15/2/1 14/1/1
f 1/3/1 2/4/1 12/4/1 11/3/1
f 8/5/1 9/6/1 19/6/1 18/5/1
f 5/2/1 6/7/1 16/7/1 15/2/1
f 2/4/1 3/8/1 13/8/1 12/4/1
f 9/6/1 10/9/1 20/9/1 19/6/1
f 6/7/1 7/10/1 17/10/1 16/7/1
f 3/8/1 4/1/1 14/1/1 13/8/1
f 10/9/1 1/3/1 11/3/1 20/9/1
f 7/10/1 8/5/1 18/5/1 17/10/1
