# Blender 4.3.2
# www.blender.org
mtllib ship_tmp.mtl
o Cube.001
v 1.193973 0.335181 -0.016586
v 1.340134 0.542974 -0.380655
v 0.180841 -0.004587 1.000000
v 0.250678 -0.030986 1.000000
v 0.407157 0.144679 -1.000000
v 0.575137 -0.002172 -1.000000
v 0.207390 -0.118816 1.000000
v 0.514930 -0.269971 -1.000000
v 1.639579 -0.142340 -0.314402
v 0.715264 -0.001298 0.333333
v 0.715264 -0.001298 -0.144722
v 1.639579 -0.273669 -0.135532
v 1.639579 -0.142340 -0.145842
v 0.515998 0.155003 -0.333333
v 0.515998 0.155003 0.333333
v 0.610136 -0.286331 0.194449
v 0.715264 -0.286331 -0.108935
v 1.230635 -0.066540 0.053604
v 1.322453 -0.065488 -0.321851
v 1.322453 -0.350521 -0.099924
v 1.322453 -0.330975 -0.290053
v 0.000000 -0.030986 1.092760
v 0.000000 0.144679 -1.000000
v 0.000000 -0.001298 -1.000000
v 0.000000 -0.004587 1.092760
v 0.000000 -0.118816 1.092760
v 0.000000 -0.328761 -1.000000
v 0.000000 -0.300949 0.426093
v 0.000000 -0.300949 -0.333333
v 0.000000 0.155003 0.333333
v 0.000000 0.155003 -0.333333
v 0.000000 0.000000 0.000000
v 0.000000 0.000000 0.000000
v 0.000000 0.000000 0.000000
v 0.000000 0.000000 0.000000
v 0.000000 0.000000 0.000000
v 0.000000 0.000000 0.000000
v 0.000000 0.000000 0.000000
v 0.000000 0.000000 0.000000
v 0.000000 0.078916 -0.995752
v 0.112833 0.032179 -0.995752
v 0.159570 -0.080654 -0.995752
v 0.000000 -0.210101 -1.080510
v 0.112833 -0.193488 -0.995752
v 0.091533 -0.172187 -1.080510
v 0.000000 -0.240225 -0.995752
v 0.129447 -0.080654 -1.080510
v 0.091533 0.010879 -1.080510
v 0.000000 0.048793 -1.080510
v 0.000000 0.048793 -1.122121
v 0.000000 0.078916 -1.094291
v 0.091533 0.010879 -1.122121
v 0.112833 0.032179 -1.094291
v 0.129447 -0.080654 -1.122121
v 0.159570 -0.080654 -1.094291
v 0.091533 -0.172187 -1.122121
v 0.112833 -0.193488 -1.094291
v 0.000000 -0.210101 -1.122121
v 0.000000 -0.240225 -1.094291
v 0.147674 -0.016324 0.938865
v 0.421361 0.096225 0.394468
v 0.000000 -0.016324 0.938865
v 0.000000 0.096225 0.394468
v -1.193973 0.335181 -0.016586
v -1.340134 0.542974 -0.380655
v -0.180841 -0.004587 1.000000
v -0.250678 -0.030986 1.000000
v -0.407157 0.144679 -1.000000
v -0.575137 -0.002172 -1.000000
v -0.207390 -0.118816 1.000000
v -0.514930 -0.269971 -1.000000
v -1.639579 -0.142340 -0.314402
v -0.715264 -0.001298 0.333333
v -0.715264 -0.001298 -0.144722
v -1.639579 -0.273669 -0.135532
v -1.639579 -0.142340 -0.145842
v -0.515998 0.155003 -0.333333
v -0.515998 0.155003 0.333333
v -0.610136 -0.286331 0.194449
v -0.715264 -0.286331 -0.108935
v -1.230635 -0.066540 0.053604
v -1.322453 -0.065488 -0.321851
v -1.322453 -0.350521 -0.099924
v -1.322453 -0.330975 -0.290053
v -0.112833 0.032179 -0.995752
v -0.159570 -0.080654 -0.995752
v -0.112833 -0.193488 -0.995752
v -0.091533 -0.172187 -1.080510
v -0.129447 -0.080654 -1.080510
v -0.091533 0.010879 -1.080510
v -0.091533 0.010879 -1.122121
v -0.112833 0.032179 -1.094291
v -0.129447 -0.080654 -1.122121
v -0.159570 -0.080654 -1.094291
v -0.091533 -0.172187 -1.122121
v -0.112833 -0.193488 -1.094291
v -0.147674 -0.016324 0.938865
v -0.421361 0.096225 0.394468
vn -0.0000 1.0000 -0.0077
vn -0.0000 1.0000 -0.0073
vn -0.0000 0.9999 -0.0155
vn -0.0000 -0.0000 -1.0000
vn 0.5862 0.7906 0.1770
vn 0.5741 0.7871 0.2255
vn 0.5114 0.7532 0.4137
vn 0.7391 -0.4729 0.4797
vn 1.0000 -0.0000 -0.0000
vn 0.7438 -0.1700 0.6464
vn 0.9873 0.1512 -0.0488
vn 0.9744 -0.1185 -0.1910
vn 0.0141 -0.9991 0.0398
vn -0.0276 -0.9992 -0.0277
vn -0.1040 -0.9927 -0.0615
vn 0.6667 0.7365 -0.1145
vn 0.6538 0.7523 -0.0819
vn 0.6316 0.7747 -0.0307
vn -0.0000 0.9276 0.3736
vn -0.1030 0.9780 0.1812
vn -0.2906 -0.1166 -0.9497
vn 0.1202 0.9926 0.0142
vn 0.3432 -0.4356 0.8321
vn 0.9592 -0.1702 -0.2258
vn 0.2164 -0.7359 -0.6416
vn 0.4359 -0.5130 -0.7394
vn -0.0000 -0.9867 0.1626
vn 0.0227 -0.9997 0.0078
vn 0.1205 -0.9579 0.2605
vn -0.0000 -0.9650 0.2624
vn 0.3797 0.0797 0.9217
vn -0.0000 0.2088 0.9780
vn -0.0000 -0.0993 0.9951
vn 0.3738 -0.0921 0.9229
vn -0.0000 -0.9988 -0.0479
vn 0.0596 -0.9982 -0.0003
vn 0.3501 0.4631 0.8143
vn -0.0000 0.4943 0.8693
vn -0.0000 -0.0000 1.0000
vn 0.9239 -0.3827 -0.0000
vn 0.3827 -0.9239 -0.0000
vn 0.9239 0.3827 -0.0000
vn 0.3827 0.9239 -0.0000
vn 0.2706 0.6533 -0.7071
vn 0.6533 0.2706 -0.7071
vn 0.6533 -0.2706 -0.7071
vn 0.2706 -0.6533 -0.7071
vn -0.9239 0.3827 -0.0000
vn -0.3827 -0.9239 -0.0000
vn -0.3827 0.9239 -0.0000
vn -0.9239 -0.3827 -0.0000
vn -0.0000 0.9793 0.2025
vn -0.2242 0.9196 0.3227
vn -0.0000 0.8848 0.4660
vn -0.2162 0.9728 -0.0831
vn -0.2668 0.9607 -0.0768
vn -0.0000 0.9946 -0.1040
vn -0.0035 -0.2531 -0.9674
vn 0.0001 -0.0962 -0.9954
vn 0.6797 0.4854 0.5499
vn 0.4588 0.1934 0.8672
vn 0.9163 0.4004 -0.0000
vn 0.8968 0.4218 0.1335
vn 0.9084 0.3867 -0.1586
vn 0.2984 -0.2515 0.9207
vn 0.2313 -0.9288 0.2896
vn -0.0055 -0.1189 -0.9929
vn -0.9632 -0.1291 -0.2359
vn -0.9261 -0.0095 -0.3772
vn -0.5862 0.7906 0.1770
vn -0.5114 0.7532 0.4137
vn -0.5741 0.7871 0.2255
vn -0.7391 -0.4729 0.4797
vn -1.0000 -0.0000 -0.0000
vn -0.9873 0.1511 -0.0488
vn -0.7438 -0.1700 0.6465
vn -0.9744 -0.1185 -0.1910
vn -0.0141 -0.9991 0.0398
vn 0.1040 -0.9927 -0.0615
vn 0.0276 -0.9992 -0.0277
vn -0.6667 0.7365 -0.1145
vn -0.6316 0.7747 -0.0307
vn -0.6538 0.7523 -0.0819
vn 0.1030 0.9780 0.1812
vn 0.2906 -0.1166 -0.9497
vn -0.1202 0.9926 0.0142
vn -0.3432 -0.4356 0.8321
vn -0.9592 -0.1702 -0.2258
vn -0.4359 -0.5131 -0.7394
vn -0.2164 -0.7359 -0.6416
vn -0.1205 -0.9579 0.2605
vn -0.3797 0.0797 0.9217
vn -0.3738 -0.0921 0.9229
vn -0.0596 -0.9982 -0.0003
vn -0.3501 0.4631 0.8143
vn -0.2706 0.6533 -0.7071
vn -0.6533 0.2706 -0.7071
vn -0.6533 -0.2706 -0.7071
vn -0.2706 -0.6533 -0.7071
vn 0.2242 0.9196 0.3227
vn 0.2162 0.9728 -0.0831
vn 0.2668 0.9607 -0.0768
vn 0.0035 -0.2530 -0.9675
vn -0.0001 -0.0962 -0.9954
vn -0.6797 0.4854 0.5499
vn -0.4588 0.1934 0.8672
vn -0.9163 0.4004 -0.0000
vn -0.9085 0.3868 -0.1585
vn -0.8968 0.4218 0.1334
vn -0.2313 -0.9288 0.2897
vn -0.2984 -0.2515 0.9207
vn 0.0055 -0.1189 -0.9929
vn 0.9632 -0.1291 -0.2359
vn 0.9261 -0.0095 -0.3772
vt 0.750000 0.666667
vt 0.875000 0.666667
vt 0.875000 0.750000
vt 0.750000 0.750000
vt 0.375000 0.875000
vt 0.625000 0.875000
vt 0.625000 1.000000
vt 0.375000 1.000000
vt 0.375000 0.166667
vt 0.625000 0.166667
vt 0.625000 0.250000
vt 0.375000 0.250000
vt 0.000000 0.000000
vt 0.375000 0.083333
vt 0.375000 0.000000
vt 0.125000 0.583333
vt 0.125000 0.666667
vt 0.625000 0.000000
vt 0.625000 0.083333
vt 0.750000 0.583333
vt 0.875000 0.583333
vt 0.250000 0.583333
vt 0.250000 0.666667
vt 0.125000 0.500000
vt 0.250000 0.500000
vt 0.375000 0.375000
vt 0.250000 0.750000
vt 0.125000 0.750000
vt 0.625000 0.375000
vt 0.625000 0.500000
vt 0.375000 0.500000
vt 0.625000 0.750000
vt 0.375000 0.750000
vt 0.875000 0.500000
vt 0.750000 0.610116
vt 0.750000 1.000000
vt 0.625000 0.610116
vt 0.500000 1.000000
vt 0.500000 0.610116
vt 0.875000 0.610116
vt 0.875000 1.000000
vt 1.000000 0.610116
vt 1.000000 1.000000
vt 0.750000 0.490000
vt 0.919706 0.419706
vt 0.887669 0.387669
vt 0.750000 0.444693
vt 0.990000 0.250000
vt 0.944693 0.250000
vt 0.919706 0.080294
vt 0.887669 0.112331
vt 0.750000 0.010000
vt 0.750000 0.055307
vt 0.750000 0.500000
s 1
usemtl Material.003
f 31/1/1 14/2/2 5/3/3 23/4/3
f 24/5/4 23/6/4 5/7/4 6/8/4
f 10/9/5 15/10/6 3/11/7 4/12/7
f 10/9/8 4/12/8 7/12/8 16/9/8
s 0
f 13/13/9 12/9/10 9/14/11
s 1
f 24/5/4 6/8/4 8/8/4 27/5/4
f 6/15/12 11/14/12 17/14/12 8/15/12
f 16/16/13 17/17/14 21/17/15 20/16/15
f 6/15/16 5/18/16 14/19/17 11/14/18
f 11/14/18 14/19/17 15/10/6 10/9/5
f 30/20/19 15/21/20 14/2/2 31/1/1
f 17/14/21 11/14/21 19/14/21 21/14/21
f 11/14/22 10/9/22 18/9/22 19/14/22
f 10/9/23 16/9/23 20/9/23 18/9/23
f 12/9/24 21/14/25 9/14/26
f 16/16/13 28/22/27 29/23/28 17/17/14
f 7/24/29 26/25/30 28/22/27 16/16/13
f 4/12/31 22/26/32 26/26/33 7/12/34
f 17/17/14 29/23/28 27/27/35 8/28/36
f 4/12/31 3/11/37 25/29/38 22/26/32
s 0
f 32/15/39 33/18/39 35/11/39 34/12/39
f 34/12/39 35/11/39 39/30/39 38/31/39
f 38/31/39 39/30/39 37/32/39 36/33/39
f 36/33/39 37/32/39 33/7/39 32/8/39
f 34/24/39 38/31/39 36/33/39 32/28/39
f 39/30/39 35/34/39 33/3/39 37/32/39
s 1
f 55/35/40 42/36/40 44/7/40 57/37/40
f 57/37/41 44/7/41 46/38/41 59/39/41
f 53/40/42 41/41/42 42/36/42 55/35/42
f 51/42/43 40/43/43 41/41/43 53/40/43
f 51/44/44 53/45/44 52/46/44 50/47/44
f 53/45/45 55/48/45 54/49/45 52/46/45
f 55/48/46 57/50/46 56/51/46 54/49/46
f 57/50/47 59/52/47 58/53/47 56/51/47
f 54/49/48 56/51/48 45/51/48 47/49/48
f 50/47/49 52/46/49 48/46/49 49/47/49
f 56/51/50 58/53/50 43/53/50 45/51/50
f 52/46/51 54/49/51 47/49/51 48/46/51
f 62/54/52 60/34/52 61/21/53 63/20/54
f 3/11/55 15/10/20 61/10/53 60/11/56
f 25/29/57 3/11/55 60/11/56 62/29/57
f 15/21/20 30/20/19 63/20/54 61/21/53
s 0
f 9/14/58 19/14/59 2/13/59
f 2/13/60 1/13/60 13/13/60
f 1/13/61 18/9/61 13/13/61
f 2/13/62 13/9/63 9/14/64
s 1
f 12/9/24 13/13/65 18/9/65 20/16/66
f 21/14/25 19/14/67 9/14/26
f 18/9/68 1/13/68 19/14/68
s 0
f 1/13/69 2/13/69 19/14/69
s 1
f 21/17/25 12/9/24 20/16/66
f 31/1/1 23/4/3 68/3/3 77/2/2
f 24/5/4 69/8/4 68/7/4 23/6/4
f 73/9/70 67/12/71 66/11/71 78/10/72
f 73/9/73 79/9/73 70/12/73 67/12/73
s 0
f 76/13/74 72/14/75 75/9/76
s 1
f 24/5/4 27/5/4 71/8/4 69/8/4
f 69/15/77 71/15/77 80/14/77 74/14/77
f 79/16/78 83/16/79 84/17/79 80/17/80
f 69/15/81 74/14/82 77/19/83 68/18/81
f 74/14/82 73/9/70 78/10/72 77/19/83
f 30/20/19 31/1/1 77/2/2 78/21/84
f 80/14/85 84/14/85 82/14/85 74/14/85
f 74/14/86 82/14/86 81/9/86 73/9/86
f 73/9/87 81/9/87 83/9/87 79/9/87
f 75/9/88 72/14/89 84/14/90
f 79/16/78 80/17/80 29/23/28 28/22/27
f 70/24/91 79/16/78 28/22/27 26/25/30
f 67/12/92 70/12/93 26/26/33 22/26/32
f 80/17/80 71/28/94 27/27/35 29/23/28
f 67/12/92 22/26/32 25/29/38 66/11/95
f 94/35/51 96/37/51 87/7/51 86/36/51
f 96/37/49 59/39/49 46/38/49 87/7/49
f 92/40/48 94/35/48 86/36/48 85/41/48
f 51/42/50 92/40/50 85/41/50 40/43/50
f 51/44/96 50/47/96 91/46/96 92/45/96
f 92/45/97 91/46/97 93/49/97 94/48/97
f 94/48/98 93/49/98 95/51/98 96/50/98
f 96/50/99 95/51/99 58/53/99 59/52/99
f 93/49/42 89/49/42 88/51/42 95/51/42
f 50/47/41 49/47/41 90/46/41 91/46/41
f 95/51/43 88/51/43 43/53/43 58/53/43
f 91/46/40 90/46/40 89/49/40 93/49/40
f 62/54/52 63/20/54 98/21/100 97/34/52
f 66/11/101 97/11/102 98/10/100 78/10/84
f 25/29/57 62/29/57 97/11/102 66/11/101
f 78/21/84 98/21/100 63/20/54 30/20/19
s 0
f 72/14/103 65/13/104 82/14/104
f 65/13/105 76/13/105 64/13/105
f 64/13/106 76/13/106 81/9/106
f 65/13/107 72/14/108 76/9/109
s 1
f 75/9/88 83/16/110 81/9/111 76/13/111
f 84/14/90 72/14/89 82/14/112
f 81/9/113 82/14/113 64/13/113
s 0
f 64/13/114 82/14/114 65/13/114
s 1
f 84/17/90 83/16/110 75/9/88
