# Blender 4.3.2
# www.blender.org
mtllib ufo.mtl
o Cylinder
v 0.000000 -0.230134 -1.469616
v 0.863819 -0.230134 -1.188944
v 1.397688 -0.230134 -0.454136
v 1.397688 -0.230134 0.454136
v 0.863819 -0.230134 1.188944
v 0.000000 -0.230134 1.469616
v -0.863819 -0.230134 1.188944
v -1.397688 -0.230134 0.454136
v -1.397688 -0.230134 -0.454136
v -0.863819 -0.230134 -1.188944
v 0.568343 -0.087521 -0.782257
v -0.000000 -0.087521 -0.966923
v 0.919599 -0.087521 -0.298796
v 0.919599 -0.087521 0.298796
v 0.568343 -0.087521 0.782257
v -0.000000 -0.087521 0.966923
v -0.568343 -0.087521 0.782257
v -0.919599 -0.087521 0.298796
v -0.919599 -0.087521 -0.298796
v -0.568343 -0.087521 -0.782257
v 0.568343 -0.372747 -0.782257
v -0.000000 -0.372747 -0.966923
v 0.919599 -0.372747 -0.298796
v 0.919599 -0.372747 0.298796
v 0.568343 -0.372747 0.782257
v -0.000000 -0.372747 0.966923
v -0.568343 -0.372747 0.782257
v -0.919599 -0.372747 0.298796
v -0.919599 -0.372747 -0.298796
v -0.568343 -0.372747 -0.782257
vn 0.2313 -0.9583 -0.1680
vn 0.2859 0.9583 -0.0000
vn -0.0000 1.0000 -0.0000
vn 0.2313 0.9583 -0.1680
vn -0.0883 0.9583 -0.2719
vn -0.2313 0.9583 -0.1680
vn -0.2859 0.9583 -0.0000
vn -0.2313 0.9583 0.1680
vn -0.0883 0.9583 0.2719
vn 0.0883 0.9583 0.2719
vn 0.2313 0.9583 0.1680
vn 0.0883 0.9583 -0.2719
vn -0.0000 -1.0000 -0.0000
vn -0.2313 -0.9583 -0.1680
vn -0.0883 -0.9583 0.2719
vn 0.2859 -0.9583 -0.0000
vn -0.0883 -0.9583 -0.2719
vn -0.2313 -0.9583 0.1680
vn 0.2313 -0.9583 0.1680
vn 0.0883 -0.9583 -0.2719
vn -0.2859 -0.9583 -0.0000
vn 0.0883 -0.9583 0.2719
vt 0.900000 1.000000
vt 0.800000 1.000000
vt 0.700000 1.000000
vt 0.391068 0.444164
vt 0.250000 0.490000
vt 0.108932 0.444164
vt 0.021746 0.324164
vt 0.021746 0.175836
vt 0.108932 0.055836
vt 0.250000 0.010000
vt 0.391068 0.055836
vt 0.478254 0.175836
vt 0.478254 0.324164
vt -0.000000 1.000000
vt 0.100000 1.000000
vt 0.200000 1.000000
vt 0.300000 1.000000
vt 0.400000 1.000000
vt 0.500000 1.000000
vt 0.600000 1.000000
vt 1.000000 1.000000
s 0
f 2/1/1 3/2/1 23/2/1 21/1/1
f 4/3/2 3/2/2 13/2/2 14/3/2
f 11/4/3 12/5/3 20/6/3 19/7/3 18/8/3 17/9/3 16/10/3 15/11/3 14/12/3 13/13/3
f 3/2/4 2/1/4 11/1/4 13/2/4
f 1/14/5 10/15/5 20/15/5 12/14/5
f 10/15/6 9/16/6 19/16/6 20/15/6
f 9/16/7 8/17/7 18/17/7 19/16/7
f 8/17/8 7/18/8 17/18/8 18/17/8
f 7/18/9 6/19/9 16/19/9 17/18/9
f 6/19/10 5/20/10 15/20/10 16/19/10
f 5/20/11 4/3/11 14/3/11 15/20/11
f 2/1/12 1/21/12 12/21/12 11/1/12
f 30/15/13 22/21/13 21/1/13 23/2/13 24/3/13 25/20/13 26/19/13 27/18/13 28/17/13 29/16/13
f 9/16/14 10/15/14 30/15/14 29/16/14
f 6/19/15 7/18/15 27/18/15 26/19/15
f 3/2/16 4/3/16 24/3/16 23/2/16
f 10/15/17 1/14/17 22/14/17 30/15/17
f 7/18/18 8/17/18 28/17/18 27/18/18
f 4/3/19 5/20/19 25/20/19 24/3/19
f 1/21/20 2/1/20 21/1/20 22/21/20
f 8/17/21 9/16/21 29/16/21 28/17/21
f 5/20/22 6/19/22 26/19/22 25/20/22
o Icosphere
v 0.225573 0.144105 0.694255
v -0.590570 0.144105 0.429069
v -0.590570 0.144105 -0.429069
v 0.225573 0.144105 -0.694255
v 0.729983 0.144103 0.000000
v 0.000000 0.442278 0.000000
v 0.776203 -0.097129 0.252200
v 0.776203 -0.097129 -0.252200
v 0.000000 -0.097129 0.816147
v 0.479719 -0.097129 0.660276
v -0.776203 -0.097129 0.252200
v -0.479719 -0.097129 0.660276
v -0.479719 -0.097129 -0.660276
v -0.776203 -0.097129 -0.252200
v 0.479719 -0.097129 -0.660276
v 0.000000 -0.097129 -0.816147
v 0.561664 0.186457 0.408071
v -0.214540 0.186458 0.660272
v -0.694254 0.186457 0.000000
v -0.214540 0.186458 -0.660272
v 0.561664 0.186457 -0.408071
v 0.132588 0.361720 0.408070
v 0.429073 0.361719 0.000000
v -0.347126 0.361720 0.252199
v -0.347126 0.361720 -0.252199
v 0.132588 0.361720 -0.408070
vn 0.3269 0.8004 0.5024
vn -0.3768 0.8004 0.4662
vn -0.5598 0.8004 -0.2143
vn 0.0308 0.8004 -0.5986
vn 0.5789 0.8004 -0.1557
vn 0.1829 0.9741 -0.1329
vn 0.3646 0.8927 -0.2649
vn 0.3269 0.8004 -0.5024
vn -0.0699 0.9741 -0.2150
vn -0.1393 0.8927 -0.4286
vn -0.3768 0.8004 -0.4662
vn -0.2261 0.9741 -0.0000
vn -0.4507 0.8927 -0.0000
vn -0.5598 0.8004 0.2143
vn -0.0699 0.9741 0.2150
vn -0.1393 0.8927 0.4286
vn 0.0308 0.8004 0.5986
vn 0.1829 0.9741 0.1329
vn 0.3646 0.8927 0.2649
vn 0.5789 0.8004 0.1557
vn 0.8330 0.4680 -0.2950
vn 0.7772 0.2776 -0.5647
vn 0.5380 0.4680 -0.7011
vn -0.0232 0.4680 -0.8834
vn -0.2969 0.2776 -0.9137
vn -0.5005 0.4680 -0.7283
vn -0.8473 0.4680 -0.2510
vn -0.9607 0.2776 -0.0000
vn -0.8473 0.4680 0.2510
vn -0.5005 0.4680 0.7283
vn -0.2969 0.2776 0.9137
vn -0.0232 0.4680 0.8834
vn 0.5380 0.4680 0.7011
vn 0.7772 0.2776 0.5647
vn 0.8330 0.4680 0.2950
vn 0.3035 0.1882 -0.9341
vn -0.7946 0.1882 -0.5773
vn -0.7946 0.1882 0.5773
vn 0.3035 0.1882 0.9341
vn 0.9821 0.1882 -0.0000
vt 0.181819 0.314921
vt 0.272728 0.314921
vt 0.227273 0.393651
vt 0.000000 0.314921
vt 0.090910 0.314921
vt 0.045455 0.393651
vt 0.727273 0.314921
vt 0.818182 0.314921
vt 0.772727 0.393651
vt 0.545455 0.314921
vt 0.636364 0.314921
vt 0.590909 0.393651
vt 0.363637 0.314921
vt 0.454546 0.314921
vt 0.409092 0.393651
vt 0.500000 0.393651
vt 0.454546 0.472382
vt 0.681818 0.393651
vt 0.636364 0.472382
vt 0.863636 0.393651
vt 0.818182 0.472382
vt 0.909091 0.314921
vt 0.136365 0.393651
vt 0.090910 0.472382
vt 0.318182 0.393651
vt 0.272728 0.472382
vt 0.409092 0.236191
vt 0.500000 0.236191
vt 0.590909 0.236191
vt 0.681818 0.236191
vt 0.772727 0.236191
vt 0.863636 0.236191
vt 0.045455 0.236191
vt 0.136365 0.236191
vt 0.227273 0.236191
vt 0.318182 0.236191
vt 0.954545 0.236191
s 0
f 31/22/23 47/23/23 52/24/23
f 32/25/24 48/26/24 54/27/24
f 33/28/25 49/29/25 55/30/25
f 34/31/26 50/32/26 56/33/26
f 35/34/27 51/35/27 53/36/27
f 53/36/28 56/37/28 36/38/28
f 53/36/29 51/35/29 56/37/29
f 51/35/30 34/31/30 56/37/30
f 56/33/31 55/39/31 36/40/31
f 56/33/32 50/32/32 55/39/32
f 50/32/33 33/28/33 55/39/33
f 55/30/34 54/41/34 36/42/34
f 55/30/35 49/29/35 54/41/35
f 49/29/36 32/43/36 54/41/36
f 54/27/37 52/44/37 36/45/37
f 54/27/38 48/26/38 52/44/38
f 48/26/39 31/22/39 52/44/39
f 52/24/40 53/46/40 36/47/40
f 52/24/41 47/23/41 53/46/41
f 47/23/42 35/34/42 53/46/42
f 38/48/43 51/35/43 35/34/43
f 38/48/44 45/49/44 51/35/44
f 45/49/45 34/31/45 51/35/45
f 46/50/46 50/32/46 34/31/46
f 46/50/47 43/51/47 50/32/47
f 43/51/48 33/28/48 50/32/48
f 44/52/49 49/29/49 33/28/49
f 44/52/50 41/53/50 49/29/50
f 41/53/51 32/43/51 49/29/51
f 42/54/52 48/26/52 32/25/52
f 42/54/53 39/55/53 48/26/53
f 39/55/54 31/22/54 48/26/54
f 40/56/55 47/23/55 31/22/55
f 40/56/56 37/57/56 47/23/56
f 37/57/57 35/34/57 47/23/57
f 45/49/58 46/50/58 34/31/58
f 43/51/59 44/52/59 33/28/59
f 41/53/60 42/58/60 32/43/60
f 39/55/61 40/56/61 31/22/61
f 37/57/62 38/48/62 35/34/62
