# Blender 4.3.2
# www.blender.org
mtllib dodecahedron.mtl
o dodecahedron
v -0.618951 0.618950 -0.618951
v -1.001481 0.000000 0.382532
v -1.001481 -0.000000 -0.382532
v -0.618951 0.618951 0.618950
v -0.382532 1.001481 -0.000000
v 0.618951 0.618951 0.618950
v 0.382532 1.001481 -0.000000
v 0.000000 0.382533 1.001481
v -0.618951 -0.618950 0.618951
v 0.000000 -0.382532 1.001481
v -0.618951 -0.618951 -0.618950
v -0.382532 -1.001481 0.000000
v 0.000000 -0.382533 -1.001481
v 0.000000 0.382532 -1.001481
v 0.618951 0.618950 -0.618951
v 1.001481 -0.000000 -0.382532
v 1.001481 0.000000 0.382532
v 0.618951 -0.618950 0.618951
v 0.382532 -1.001481 0.000000
v 0.618951 -0.618951 -0.618950
vn -0.8507 0.5257 -0.0000
vn -0.8506 0.5257 -0.0000
vn -0.0000 0.8507 0.5257
vn -0.0000 0.8506 0.5257
vn -0.5257 -0.0000 0.8506
vn -0.5257 -0.0000 0.8507
vn -0.8506 -0.5257 -0.0000
vn -0.8507 -0.5257 -0.0000
vn -0.5257 -0.0000 -0.8506
vn -0.5257 -0.0000 -0.8507
vn -0.0000 0.8506 -0.5257
vn -0.0000 0.8507 -0.5257
vn 0.8507 0.5257 -0.0000
vn 0.8506 0.5257 -0.0000
vn 0.5257 -0.0000 0.8507
vn 0.5257 -0.0000 0.8506
vn -0.0000 -0.8507 0.5257
vn -0.0000 -0.8506 0.5257
vn -0.0000 -0.8506 -0.5257
vn -0.0000 -0.8507 -0.5257
vn 0.5257 -0.0000 -0.8507
vn 0.5257 -0.0000 -0.8506
vn 0.8506 -0.5257 -0.0000
vn 0.8507 -0.5257 -0.0000
s 0
f 2//1 1//1 3//1
f 1//1 2//1 4//1
f 1//2 4//2 5//2
f 5//3 6//3 7//3
f 6//3 5//3 4//3
f 6//4 4//4 8//4
f 9//5 4//5 2//5
f 4//6 9//6 8//6
f 8//6 9//6 10//6
f 9//7 11//7 12//7
f 11//8 9//8 3//8
f 3//8 9//8 2//8
f 1//9 11//9 3//9
f 11//10 1//10 13//10
f 13//10 1//10 14//10
f 1//11 15//11 14//11
f 15//12 1//12 7//12
f 7//12 1//12 5//12
f 16//13 6//13 17//13
f 6//13 16//13 15//13
f 6//14 15//14 7//14
f 10//15 6//15 8//15
f 6//15 10//15 18//15
f 6//16 18//16 17//16
f 19//17 9//17 12//17
f 9//17 19//17 18//17
f 9//18 18//18 10//18
f 20//19 11//19 13//19
f 11//20 20//20 12//20
f 12//20 20//20 19//20
f 14//21 20//21 13//21
f 20//21 14//21 15//21
f 20//22 15//22 16//22
f 20//23 18//23 19//23
f 18//24 20//24 17//24
f 17//24 20//24 16//24
