# Blender 4.3.2
# www.blender.org
mtllib fighter_interior_chairs.mtl
o Chair
v -0.163459 -0.140375 0.773163
v -0.163459 -0.118284 0.773163
v -0.161728 -0.118284 0.690972
v -0.081269 -0.140375 0.774894
v -0.081269 -0.118284 0.774894
v -0.079538 -0.118284 0.692704
v -0.161134 -0.140375 0.662753
v -0.078943 -0.140375 0.664484
v -0.161728 -0.010310 0.672439
v -0.079538 -0.010310 0.674171
v -0.161134 -0.010310 0.644220
v -0.078943 -0.010310 0.645951
v -0.170619 -0.108322 0.734897
v -0.170619 -0.082517 0.734897
v -0.170619 -0.108322 0.686258
v -0.170619 -0.082517 0.669681
v -0.161771 -0.108322 0.734897
v -0.161771 -0.082517 0.734897
v -0.160947 -0.108322 0.686258
v -0.161771 -0.082517 0.669681
v -0.079335 -0.082517 0.669681
v -0.079335 -0.108322 0.686258
v -0.079335 -0.108322 0.734897
v -0.079335 -0.082517 0.734897
v -0.070482 -0.082517 0.669681
v -0.070482 -0.108322 0.686258
v -0.070482 -0.108322 0.734897
v -0.070482 -0.082517 0.734897
vn -0.0000 -1.0000 -0.0000
vn -0.9998 -0.0030 -0.0211
vn 0.9998 0.0031 0.0199
vn -0.0211 -0.0000 0.9998
vn -0.9998 -0.0000 -0.0211
vn -0.0000 1.0000 -0.0000
vn 0.0208 -0.1410 -0.9898
vn -0.9998 -0.0032 -0.0186
vn -0.0208 0.1691 0.9854
vn 0.9998 -0.0000 0.0211
vn -1.0000 -0.0000 -0.0000
vn -0.0000 -0.5405 -0.8414
vn -0.0000 -0.0000 1.0000
vn 1.0000 -0.0000 -0.0000
vn 0.9998 0.0183 0.0072
vt 0.375000 0.750000
vt 0.125000 0.750000
vt 0.125000 0.500000
vt 0.375000 0.500000
vt 0.875000 0.500000
vt 0.625000 0.500000
vt 0.625000 0.750000
vt 0.625000 1.000000
vt 0.375000 1.000000
vt 0.875000 0.750000
vt 0.375000 0.000000
vt 0.625000 0.000000
vt 0.625000 0.250000
vt 0.375000 0.250000
s 0
f 4/1/1 1/2/1 7/3/1 8/4/1
f 9/5/2 11/5/2 7/3/2
f 8/4/3 12/6/3 10/6/3 6/6/3
f 4/1/4 5/7/4 2/8/4 1/9/4
f 3/5/5 7/3/5 1/9/5 2/10/5
f 6/6/6 3/5/6 2/10/6 5/7/6
f 8/4/7 7/3/7 11/5/7 12/6/7
f 3/5/8 9/5/8 7/3/8
f 9/5/6 10/6/6 12/6/6 11/5/6
f 3/5/9 6/6/9 10/6/9 9/5/9
f 8/4/10 6/6/10 5/7/10 4/1/10
f 13/11/11 14/12/11 16/13/11 15/14/11
f 15/14/12 16/13/12 20/6/12 19/4/12
f 17/1/13 18/7/13 14/8/13 13/9/13
f 15/3/1 19/4/1 17/1/1 13/2/1
f 20/6/6 16/5/6 14/10/6 18/7/6
f 24/7/13 23/1/13 27/1/13 28/7/13
f 22/4/14 21/6/14 24/7/14 23/1/14
f 21/6/12 25/6/12 26/4/12 22/4/12
f 19/4/12 20/6/12 21/6/12 22/4/12
f 26/4/14 25/6/14 28/7/14 27/1/14
f 23/1/1 22/4/1 26/4/1 27/1/1
f 21/6/6 24/7/6 28/7/6 25/6/6
f 19/4/15 20/6/15 18/7/15 17/1/15
