# Blender 4.3.2
# www.blender.org
mtllib fighter_interior_hullobj.mtl
o Exterior
v 0.318030 -0.017661 0.776933
v 0.388561 -0.065496 0.751110
v 0.407157 0.144679 -1.000000
v 0.575137 -0.002172 -1.000000
v 0.347659 -0.137607 0.751110
v 0.514930 -0.269971 -1.000000
v 0.715264 -0.001298 0.333333
v 0.715264 -0.001298 -0.144722
v 0.515998 0.155003 -0.333333
v 0.515998 0.155003 0.333333
v 0.610136 -0.286331 0.194449
v 0.715264 -0.286331 -0.108935
v 0.000000 0.144679 -1.000000
v 0.000000 -0.001298 -1.000000
v 0.000000 0.155003 0.333333
v 0.000000 0.155003 -0.333333
v 0.000000 0.000000 0.000000
v 0.000000 0.000000 0.000000
v 0.000000 0.000000 0.000000
v 0.000000 0.000000 0.000000
v 0.000000 0.000000 0.000000
v 0.000000 0.000000 0.000000
v 0.000000 0.000000 0.000000
v 0.000000 0.000000 0.000000
v 0.147674 -0.016324 0.938865
v 0.421361 0.096225 0.394468
v 0.000000 0.096225 0.394468
v -0.318030 -0.017661 0.776933
v -0.388561 -0.065496 0.751110
v -0.407157 0.144679 -1.000000
v -0.575137 -0.002172 -1.000000
v -0.347659 -0.137607 0.751110
v -0.514930 -0.269971 -1.000000
v -0.715264 -0.001298 0.333333
v -0.715264 -0.001298 -0.144722
v -0.515998 0.155003 -0.333333
v -0.515998 0.155003 0.333333
v -0.610136 -0.286331 0.194449
v -0.715264 -0.286331 -0.108935
v -0.112833 0.032179 -0.995752
v -0.112833 -0.193488 -0.995752
v -0.147674 -0.016324 0.938865
v -0.421361 0.096225 0.394468
v -0.506613 -0.078667 0.570462
v -0.458856 -0.137607 0.580214
v 0.458856 -0.137607 0.580214
v 0.545341 -0.064306 0.526447
vn -0.0000 -0.0000 1.0000
vn -0.5773 -0.7692 -0.2740
vn -0.5808 -0.7828 -0.2234
vn -0.7156 -0.4963 -0.4915
vn -0.7319 0.4766 -0.4870
vn -0.7347 0.4751 -0.4843
vn -0.7408 0.4835 -0.4664
vn -0.6977 0.4747 -0.5366
vn -0.9744 0.1184 0.1910
vn -0.9744 0.1190 0.1908
vn -0.9744 0.1186 0.1910
vn -0.6667 -0.7365 0.1145
vn -0.6315 -0.7747 0.0307
vn -0.6537 -0.7523 0.0819
vn -0.0000 -1.0000 0.0077
vn -0.0000 -0.9999 0.0155
vn -0.7174 0.5054 -0.4795
vn -0.7161 0.5134 -0.4728
vn -0.2620 -0.9535 -0.1489
vn -0.2997 -0.9263 -0.2285
vn 0.1172 -0.8936 -0.4333
vn -0.0000 -0.9276 -0.3736
vn -0.0751 -0.9713 -0.2257
vn 0.7156 -0.4963 -0.4915
vn 0.5808 -0.7828 -0.2234
vn 0.5773 -0.7692 -0.2740
vn 0.7319 0.4767 -0.4869
vn 0.7161 0.5134 -0.4728
vn 0.7174 0.5054 -0.4795
vn 0.7422 0.4826 -0.4650
vn 0.9744 0.1186 0.1910
vn 0.9744 0.1190 0.1909
vn 0.9744 0.1184 0.1910
vn 0.6667 -0.7365 0.1145
vn 0.6537 -0.7523 0.0819
vn 0.6315 -0.7747 0.0307
vn 0.4919 0.8670 -0.0794
vn 0.4757 0.8752 -0.0879
vn 0.9650 0.1794 -0.1914
vn 0.9709 0.2143 -0.1067
vn -0.0000 -0.8844 -0.4666
vn -0.1168 -0.8937 -0.4332
vn 0.2620 -0.9535 -0.1489
vn -0.7492 -0.4529 -0.4833
vn -0.9744 0.1179 0.1912
vn -0.0000 -1.0000 0.0073
vn 0.0750 -0.9713 -0.2257
vn 0.7492 -0.4529 -0.4833
vn 0.7678 0.4882 -0.4149
vn 0.7347 0.4753 -0.4841
vn 0.9745 0.1179 0.1912
vn 0.2998 -0.9263 -0.2284
vn -0.4919 0.8670 -0.0794
vn -0.9709 0.2143 -0.1067
vn -0.9650 0.1794 -0.1914
vn -0.4757 0.8752 -0.0878
vt 0.375000 0.875000
vt 0.375000 1.000000
vt 0.625000 1.000000
vt 0.625000 0.166667
vt 0.375000 0.166667
vt 0.375000 0.250000
vt 0.375000 0.214934
vt 0.375000 0.205187
vt 0.375000 0.083333
vt 0.375000 0.000000
vt 0.625000 0.083333
vt 0.750000 0.666667
vt 0.750000 0.750000
vt 0.875000 0.750000
vt 0.625000 0.250000
vt 0.375000 0.500000
vt 0.625000 0.500000
vt 0.375000 0.750000
vt 0.625000 0.750000
vt 0.125000 0.500000
vt 0.125000 0.750000
vt 0.750000 0.583333
vt 0.875000 0.583333
vt 0.625000 0.875000
vt 0.375000 0.213967
vt 0.625000 0.000000
vt 0.125000 0.583333
vt 0.125000 0.666667
vt 0.875000 0.666667
vt 0.875000 0.500000
vt 0.375000 0.210502
s 1
usemtl Material.005
f 14/1/1 4/2/1 3/3/1
f 10/4/2 7/5/3 2/6/4
f 7/5/5 11/5/6 46/7/7 47/8/8
f 33/2/1 6/2/1 14/1/1
f 8/9/9 4/10/10 6/10/11
f 4/10/12 8/9/13 9/11/14
f 8/9/13 7/5/3 10/4/2
f 16/12/15 13/13/16 3/14/16
s 0
f 17/10/1 19/6/1 20/15/1
f 19/6/1 23/16/1 24/17/1
f 23/16/1 21/18/1 22/19/1
f 21/18/1 17/2/1 18/3/1
f 19/20/1 17/21/1 21/18/1
f 24/17/1 22/19/1 18/14/1
s 1
f 7/5/5 47/8/8 5/6/17 2/6/18
f 1/15/19 25/15/20 26/4/21
f 15/22/22 37/23/23 16/12/15
f 14/1/1 13/24/1 30/3/1
f 29/6/24 34/5/25 37/4/26
f 34/5/27 29/6/28 32/6/29 44/25/30
f 14/1/1 31/2/1 33/2/1
f 33/10/31 31/10/32 35/9/33
f 31/10/34 30/26/34 36/11/35
f 35/9/36 36/11/35 37/4/26
f 14/1/1 3/3/1 13/24/1
f 38/27/37 39/28/38 35/9/39 34/5/40
f 15/22/22 27/22/41 43/23/42
f 28/15/43 37/4/23 43/4/42
f 10/4/2 2/6/4 1/15/44
f 14/1/1 6/2/1 4/2/1
f 8/9/9 6/10/11 12/9/45
f 4/10/12 9/11/14 3/26/12
f 8/9/13 10/4/2 9/11/14
f 16/12/15 3/14/16 9/29/46
f 13/13/16 16/12/15 30/14/16
f 30/14/16 16/12/15 36/29/46
s 0
f 17/10/1 20/15/1 18/26/1
f 19/6/1 24/17/1 20/15/1
f 23/16/1 22/19/1 24/17/1
f 21/18/1 18/3/1 22/19/1
f 19/20/1 21/18/1 23/16/1
f 24/17/1 18/14/1 20/30/1
s 1
f 1/15/19 26/4/21 10/4/47
f 15/22/22 9/29/46 10/23/47
f 16/12/15 37/23/23 36/29/46
f 15/22/22 16/12/15 9/29/46
f 14/1/1 30/3/1 31/2/1
f 29/6/24 37/4/26 28/15/48
f 34/5/27 44/25/30 45/31/49 38/5/50
f 33/10/31 35/9/33 39/9/51
f 31/10/34 36/11/35 35/9/36
f 35/9/36 37/4/26 34/5/25
f 26/23/21 15/22/22 10/23/47
f 15/22/22 43/23/42 37/23/23
f 27/22/41 15/22/22 26/23/21
f 28/15/43 43/4/42 42/15/52
f 11/27/53 7/5/54 8/9/55 12/28/56
f 45/31/49 44/25/30 32/6/29
f 47/8/8 46/7/7 5/6/17
