# Blender 4.3.2
# www.blender.org
mtllib fighter_interior_display.mtl
o Display
v -0.081034 0.066751 0.530567
v 0.252987 0.066751 0.530567
v -0.147674 0.066751 0.530567
v -0.147674 0.010476 0.802766
v 0.216068 0.066751 0.530567
v 0.147674 0.024545 0.734716
v -0.173358 0.024545 0.734716
v -0.052247 0.052682 0.598617
v 0.086861 0.066751 0.530567
v 0.052247 0.052682 0.598617
v -0.165247 0.073785 0.496542
v -0.110755 0.066751 0.530567
v -0.110755 0.010476 0.802766
v -0.136439 0.024545 0.734716
v -0.128329 0.073785 0.496542
v 0.110755 0.024545 0.734716
v 0.174002 0.035096 0.683679
v 0.137084 0.035096 0.683679
v 0.160838 0.029820 0.709198
v 0.123920 0.029820 0.709198
v 0.173025 0.035418 0.682124
v 0.250406 0.066429 0.532122
v 0.217045 0.066429 0.532122
v 0.139664 0.035418 0.682124
v 0.124856 0.029512 0.710689
v 0.113231 0.024853 0.733225
v 0.146737 0.024853 0.733225
v 0.158363 0.029512 0.710689
v -0.138060 0.024074 0.736995
v -0.170016 0.024074 0.736995
v -0.146053 0.010947 0.800487
v -0.114097 0.010947 0.800487
v -0.129286 0.073470 0.498067
v -0.162716 0.073470 0.498067
v -0.146717 0.067066 0.529043
v -0.113287 0.067066 0.529043
v 0.083903 0.066380 0.532360
v 0.051114 0.053053 0.596824
v -0.051024 0.053053 0.596824
v -0.078293 0.066380 0.532360
vn 0.0042 -0.9768 -0.2143
vn -0.0058 -0.9815 -0.1913
vn 0.0091 -0.9774 -0.2113
vn 0.0128 -0.9791 -0.2030
vn 0.0127 -0.9789 -0.2041
vn 0.0058 -0.9769 -0.2136
vn -0.0128 -0.9792 -0.2024
vn 0.0121 -0.9784 -0.2064
vn 0.0126 -0.9787 -0.2047
vn 0.0128 -0.9792 -0.2023
vn 0.0128 -0.9792 -0.2025
vn -0.0023 -0.9818 -0.1901
vn 0.0128 -0.9792 -0.2024
vn 0.0056 -0.9769 -0.2137
vn -0.0126 -0.9787 -0.2047
vn -0.0126 -0.9788 -0.2044
vn -0.0111 -0.9805 -0.1961
vn 0.0123 -0.9799 -0.1991
vn 0.0125 -0.9798 -0.1998
vn 0.0041 -0.9768 -0.2143
vn -0.0127 -0.9788 -0.2042
vn 0.0058 -0.9815 -0.1913
vn 0.0025 -0.9818 -0.1901
vn -0.0000 -0.9793 -0.2025
vt 0.625000 0.250000
vt 0.625000 0.250000
vt 0.625000 0.250000
vt 0.625000 0.250000
vt 0.000000 0.000000
s 1
usemtl Material.002
f 17/1/1 21/2/2 22/2/3
f 5/1/4 2/1/5 22/2/3
f 5/1/4 23/3/6 24/3/7
f 17/1/1 18/1/8 24/3/7
f 20/1/8 25/4/6 26/3/7
f 6/1/9 16/1/10 26/3/7
f 6/1/9 27/1/2 28/1/11
f 20/1/8 19/1/1 28/1/11
f 14/1/12 29/1/13 30/2/14
f 4/1/15 7/1/16 30/2/14
f 4/1/15 31/4/7 32/1/17
f 14/1/12 13/1/18 32/1/17
f 15/1/19 33/2/13 34/2/20
f 3/1/15 11/1/21 34/2/20
f 3/1/15 35/1/7 36/1/22
f 15/1/19 12/1/23 36/1/22
s 0
f 10/5/24 37/5/24 9/5/24
f 10/5/24 39/5/24 38/5/24
f 8/5/24 40/5/24 39/5/24
f 1/5/24 37/5/24 40/5/24
s 1
f 17/1/1 22/2/3 2/1/5
f 5/1/4 22/2/3 23/3/6
f 5/1/4 24/3/7 18/1/8
f 17/1/1 24/3/7 21/2/2
f 20/1/8 26/3/7 16/1/10
f 6/1/9 26/3/7 27/1/2
f 6/1/9 28/1/11 19/1/1
f 20/1/8 28/1/11 25/4/6
f 14/1/12 30/2/14 7/1/16
f 4/1/15 30/2/14 31/4/7
f 4/1/15 32/1/17 13/1/18
f 14/1/12 32/1/17 29/1/13
f 15/1/19 34/2/20 11/1/21
f 3/1/15 34/2/20 35/1/7
f 3/1/15 36/1/22 12/1/23
f 15/1/19 36/1/22 33/2/13
s 0
f 10/5/24 38/5/24 37/5/24
f 10/5/24 8/5/24 39/5/24
f 8/5/24 1/5/24 40/5/24
f 1/5/24 9/5/24 37/5/24
o DashDisplay
v 0.065994 -0.116327 0.839280
v -0.065994 -0.116327 0.839280
v 0.033291 -0.083157 0.755806
v 0.033291 -0.077197 0.800132
v 0.007630 -0.077196 0.800132
v 0.007630 -0.083157 0.755806
v 0.045597 -0.083157 0.755806
v 0.033291 -0.084647 0.744725
v 0.045597 -0.077197 0.800132
v 0.033291 -0.075707 0.811213
v -0.004676 -0.077196 0.800132
v 0.007630 -0.075706 0.811213
v -0.004676 -0.083157 0.755806
v 0.007630 -0.084647 0.744725
v 0.033291 -0.086023 0.755806
v 0.033291 -0.080063 0.800132
v 0.007630 -0.080062 0.800132
v 0.007630 -0.086023 0.755806
v -0.043985 -0.082421 0.734916
v -0.019816 -0.082421 0.734916
v -0.014901 -0.075642 0.810987
v -0.048900 -0.075641 0.810987
v -0.014901 -0.082421 0.780690
v -0.014901 -0.075642 0.800765
v -0.048900 -0.075641 0.800765
v -0.048900 -0.082421 0.780690
v -0.019816 -0.082421 0.780690
v -0.019816 -0.075642 0.800765
v -0.043985 -0.075641 0.800765
v -0.043985 -0.082421 0.780690
v 0.045597 -0.086005 0.755806
v 0.033291 -0.087495 0.744725
v 0.045597 -0.080045 0.800132
v 0.033291 -0.078554 0.811213
v -0.004676 -0.080044 0.800132
v 0.007630 -0.078554 0.811213
v -0.004676 -0.086004 0.755806
v 0.007630 -0.087495 0.744725
v -0.048885 -0.082421 0.734916
v -0.014916 -0.082421 0.734916
v -0.014916 -0.082421 0.780690
v -0.048885 -0.082421 0.780690
v -0.019816 -0.082421 0.773472
v -0.043985 -0.082421 0.773472
v -0.019816 -0.082421 0.739452
v -0.043985 -0.082421 0.739452
v -0.019816 -0.082421 0.734939
v -0.043985 -0.082421 0.734939
vn 0.6614 -0.7335 -0.1566
vn 0.1886 0.8839 0.4280
vn 0.0198 0.6583 0.7525
vn -0.2434 -0.7040 -0.6672
vn 0.7279 0.4746 -0.4949
vn -0.8624 0.4428 -0.2454
vn 0.9145 0.3660 -0.1723
vn -0.7422 0.3149 -0.5915
vn 0.1295 0.9916 -0.0045
vn -0.0657 -0.3069 -0.9495
vn -0.1722 0.9830 -0.0644
vn -0.1411 0.9743 0.1754
vn 0.1497 0.9676 -0.2031
vn -0.2884 0.9356 -0.2038
vn 0.2586 0.9510 -0.1695
vn 0.1490 0.8960 -0.4184
vn 0.1480 0.8867 -0.4380
vn -0.7439 0.6640 0.0756
vn -0.8100 -0.4061 0.4231
vn -0.6594 0.4822 -0.5768
vn 0.6084 0.5769 0.5450
vn 0.7346 -0.6782 -0.0198
vn 0.9051 -0.2691 -0.3292
vn -0.6637 0.4805 0.5732
vn -0.3517 -0.3777 0.8565
vn 0.3230 -0.2663 0.9082
vn -0.7486 0.6169 0.2429
vn -0.8776 0.4616 -0.1293
vn -0.6850 -0.7278 -0.0328
vn -0.7100 0.3591 -0.6057
vn -0.4408 -0.4583 -0.7718
vn 0.3658 -0.3362 -0.8679
vn -0.1822 0.4289 0.8848
vn -0.0000 0.5851 -0.8110
vn 0.0655 0.3069 0.9495
vn -0.1955 0.9783 -0.0689
vn -0.2044 0.9783 -0.0349
vn -0.2921 0.9518 0.0933
vn -0.0000 -0.5852 0.8109
vn 0.1781 -0.9840 -0.0000
vn -0.0000 1.0000 -0.0000
vn -0.0414 0.9926 0.1141
vn -0.1372 0.9518 -0.2742
vt 0.625000 0.250000
vt 0.000000 0.000000
s 1
usemtl Material.002
f 43/6/25 58/6/26 55/6/27
f 46/6/28 57/6/29 58/6/26
f 44/6/30 57/6/29 45/6/31
f 43/6/25 56/6/32 44/6/30
f 65/6/33 70/6/34 66/6/35
f 61/6/36 65/6/33 62/6/37
f 63/6/38 68/6/39 64/6/40
f 65/6/33 68/6/39 69/6/41
f 53/6/42 75/6/43 51/6/44
f 47/6/45 73/6/46 71/6/47
f 50/6/48 76/6/49 74/6/50
f 51/6/44 76/6/49 52/6/51
f 54/6/52 77/6/53 53/6/42
f 48/6/54 78/6/55 54/6/52
f 48/6/54 71/6/47 72/6/56
f 49/6/57 74/6/50 73/6/46
f 43/6/25 46/6/28 58/6/26
f 46/6/28 45/6/31 57/6/29
f 44/6/30 56/6/32 57/6/29
f 43/6/25 55/6/27 56/6/32
f 65/6/33 69/6/41 70/6/34
f 61/6/36 64/6/40 65/6/33
f 63/6/38 67/6/58 68/6/39
f 65/6/33 64/6/40 68/6/39
f 53/6/42 77/6/53 75/6/43
f 47/6/45 49/6/57 73/6/46
f 50/6/48 52/6/51 76/6/49
f 51/6/44 75/6/43 76/6/49
f 54/6/52 78/6/55 77/6/53
f 48/6/54 72/6/56 78/6/55
f 48/6/54 47/6/45 71/6/47
f 49/6/57 50/6/48 74/6/50
f 54/6/52 53/6/42 46/7/28
f 47/6/45 48/6/54 43/7/25
f 49/6/57 44/7/30 50/6/48
f 45/7/31 51/6/44 52/6/51
f 70/6/59 59/6/60 79/6/61
f 60/6/62 67/6/63 81/6/64
s 0
f 67/7/65 84/7/65 70/7/65
s 1
f 70/6/59 79/6/61 82/6/66
s 0
f 85/7/65 88/7/65 86/7/65
s 1
f 60/6/62 81/6/64 80/6/67
s 0
f 67/7/65 83/7/65 84/7/65
f 85/7/65 87/7/65 88/7/65
s 1
f 44/7/30 49/6/57 47/6/45 43/7/25
f 45/7/31 46/7/28 53/6/42 51/6/44
f 46/7/28 43/7/25 48/6/54 54/6/52
f 45/7/31 52/6/51 50/6/48 44/7/30
l 41 42
l 63 66
o Window
v 0.147674 -0.016324 0.938865
v 0.421361 0.096225 0.394468
v 0.000000 -0.016324 0.938865
v 0.000000 0.096225 0.394468
v -0.147674 -0.016324 0.938865
v -0.421361 0.096225 0.394468
v 0.144141 -0.014978 0.932353
v 0.411280 0.094879 0.400980
v 0.000000 -0.014978 0.932353
v 0.000000 0.094879 0.400980
v -0.144141 -0.014978 0.932353
v -0.411280 0.094879 0.400980
v 0.147674 -0.014733 0.939194
v 0.000000 -0.014733 0.939194
v 0.421361 0.097816 0.394797
v 0.000000 0.097816 0.394797
v -0.147674 -0.014733 0.939194
v -0.421361 0.097816 0.394797
v 0.144141 -0.013387 0.932682
v 0.000000 -0.013387 0.932682
v 0.411280 0.096469 0.401309
v 0.000000 0.096469 0.401309
v -0.144141 -0.013387 0.932682
v -0.411280 0.096469 0.401309
vn 0.0141 0.9877 0.1557
vn 0.0003 0.9681 0.2507
vn -0.2281 0.9677 0.1072
vn 0.7006 0.4224 0.5751
vn -0.7006 0.4225 0.5751
vn 0.2282 0.9677 0.1070
vn -0.0003 0.9681 0.2507
vn -0.0141 0.9877 0.1557
vn -0.0000 0.9846 0.1749
vn -0.0000 0.9732 0.2299
vn -0.0000 0.3628 0.9319
vn 0.2087 0.8172 -0.5372
vn 0.0364 -0.9713 -0.2351
vn 0.7006 -0.6158 0.3605
vn -0.2281 -0.9309 -0.2853
vn -0.0446 -0.9825 -0.1810
vn -0.7006 -0.6159 0.3604
vn -0.0364 -0.9713 -0.2351
vn 0.0446 -0.9825 -0.1810
vn 0.2282 -0.9308 -0.2855
vn -0.0000 -0.9732 -0.2299
vn -0.0000 -0.9846 -0.1749
vn 0.2087 -0.8172 0.5372
vn -0.0000 -0.3628 -0.9319
vn -0.0000 0.2299 -0.9732
vn 0.5409 0.2040 -0.8159
vn 0.5150 0.1395 -0.8458
vn -0.0000 0.1749 -0.9846
vn -0.5409 0.2040 -0.8159
vn -0.5150 0.1395 -0.8458
vn 0.5483 -0.1141 0.8284
vn 0.5064 -0.2291 0.8313
vn -0.5483 -0.1141 0.8284
vn -0.5064 -0.2291 0.8313
vn -0.0000 -0.1749 0.9846
vn -0.0000 -0.2299 0.9732
vt 0.625000 0.250000
vt 0.625000 0.166667
vt 0.625000 0.375000
vt 0.750000 0.583333
vt 0.875000 0.583333
s 1
usemtl Material.005
f 93/8/68 99/8/69 100/9/70 94/9/71
f 90/9/72 96/9/73 95/8/74 89/8/75
f 91/10/76 97/10/77 99/8/69 93/8/68
f 92/11/78 98/11/79 96/12/73 90/12/72
f 94/12/71 100/12/70 98/11/79 92/11/78
f 89/8/75 95/8/74 97/10/77 91/10/76
f 105/8/80 106/9/81 112/9/82 111/8/83
f 103/9/84 101/8/85 107/8/86 109/9/87
f 102/10/88 105/8/80 111/8/83 108/10/89
f 104/11/90 103/12/84 109/12/87 110/11/91
f 106/12/81 104/11/90 110/11/91 112/12/82
f 101/8/85 102/10/88 108/10/89 107/8/86
f 91/10/92 93/8/93 105/8/94 102/10/95
f 98/11/79 100/12/70 112/12/82 110/11/91
f 89/8/96 91/10/92 102/10/95 101/8/97
f 95/8/98 96/9/73 109/9/87 107/8/99
f 94/12/71 92/11/78 104/11/90 106/12/81
f 100/9/70 99/8/100 111/8/101 112/9/82
f 90/9/72 89/8/96 101/8/97 103/9/84
f 96/12/73 98/11/79 110/11/91 109/12/87
f 93/8/93 94/9/71 106/9/81 105/8/94
f 92/11/78 90/12/72 103/12/84 104/11/90
f 99/8/100 97/10/102 108/10/103 111/8/101
f 97/10/102 95/8/98 107/8/99 108/10/103
