# Blender 4.3.2
# www.blender.org
mtllib fighter_interior_floor.mtl
o Floor
v 0.250800 -0.137985 0.839280
v -0.250800 -0.137985 0.839280
v 0.347659 -0.137607 0.751110
v -0.347659 -0.137607 0.751110
v 0.200640 -0.125953 0.839280
v -0.200640 -0.125953 0.839280
v 0.458856 -0.137607 0.580214
v -0.458856 -0.137607 0.580214
v 0.610136 -0.286331 0.194449
v -0.610136 -0.286331 0.194449
v 0.715264 -0.286331 -0.108935
v -0.715264 -0.286331 -0.108935
v 0.514930 -0.269971 -1.000000
v -0.514930 -0.269971 -1.000000
vn -0.1112 0.8996 -0.4224
vn 0.0862 0.9607 -0.2638
vn 0.1104 0.8991 -0.4235
vn -0.1109 0.8994 -0.4228
vn -0.0865 0.9606 -0.2640
vn 0.0847 0.9612 -0.2626
vn 0.1101 0.9912 -0.0732
vn -0.1107 0.9912 -0.0722
vn -0.0000 1.0000 -0.0012
vn 0.1107 0.9912 -0.0723
vn -0.0003 0.9997 0.0245
vn -0.0095 0.9998 0.0170
vn -0.0000 0.9997 0.0245
vn -0.1018 0.9931 0.0580
vn -0.3187 0.8698 0.3766
vn -0.1311 0.9913 -0.0151
vn -0.1018 0.9931 0.0579
vn 0.1082 0.9929 0.0496
vn 0.0514 0.9969 -0.0594
vn 0.1081 0.9929 0.0497
vn -0.4148 0.8959 -0.1590
vn 0.0512 0.9969 -0.0594
vn 0.1542 0.9486 -0.2765
vn 0.0513 0.9969 -0.0593
vn -0.1542 0.9486 -0.2765
vn -0.1312 0.9912 -0.0152
vt 0.625000 0.250000
vt 0.625000 0.250000
s 0
usemtl Material.002
f 7/1/1 10/1/2 8/1/3
f 7/1/4 9/1/5 10/1/6
f 10/1/7 9/1/8 11/1/9
f 10/1/10 11/1/9 12/2/9
f 11/1/11 14/1/12 12/2/13
f 11/1/11 13/1/11 14/1/12
f 7/1/14 5/1/15 3/1/16
f 7/1/17 8/1/18 6/1/19
f 8/1/20 4/1/21 6/1/22
f 4/1/21 2/1/23 6/1/24
f 6/1/19 5/1/15 7/1/17
f 5/1/15 1/1/25 3/1/26
