# Blender 4.3.2
# www.blender.org
mtllib fighter_interior_dash.mtl
o Interior
v -0.112833 0.032179 -0.995752
v -0.112833 -0.193488 -0.995752
v 0.318030 -0.017661 0.776933
v -0.318030 -0.017661 0.776933
v 0.250800 -0.137985 0.839280
v -0.250800 -0.137985 0.839280
v 0.388561 -0.065496 0.751110
v 0.347659 -0.137607 0.751110
v -0.347659 -0.137607 0.751110
v -0.388561 -0.065496 0.751110
v 0.200640 -0.029694 0.854996
v -0.200640 -0.029694 0.854996
v 0.200640 -0.125953 0.839280
v -0.200640 -0.125953 0.839280
v 0.160512 -0.039319 0.854996
v -0.160512 -0.039319 0.854996
v 0.160512 -0.116327 0.839280
v -0.160512 -0.116327 0.839280
v 0.065994 -0.039319 0.854996
v -0.065994 -0.039319 0.854996
v 0.065994 -0.116327 0.839280
v -0.065994 -0.116327 0.839280
v -0.055994 -0.072834 0.829370
v 0.055994 -0.072835 0.829370
v 0.065994 -0.104850 0.718618
v -0.065994 -0.104850 0.718618
v 0.055994 -0.086394 0.728529
v -0.055994 -0.086394 0.728529
v 0.377867 -0.069173 0.758053
v 0.342600 -0.127594 0.754989
v 0.252101 -0.127974 0.838180
v 0.316280 -0.027897 0.779074
v 0.210510 -0.038528 0.852846
v 0.209603 -0.118692 0.834694
v -0.342600 -0.127594 0.754989
v -0.377867 -0.069173 0.758053
v -0.252101 -0.127974 0.838180
v -0.316280 -0.027897 0.779074
v -0.209603 -0.118692 0.834694
v -0.210510 -0.038528 0.852846
v -0.065994 -0.071501 0.839280
v 0.065994 -0.071502 0.839280
v -0.065994 -0.087726 0.718618
v 0.065994 -0.087727 0.718618
v 0.060994 -0.066502 0.839280
v -0.060994 -0.066501 0.839280
v -0.060994 -0.044319 0.854996
v 0.060994 -0.044319 0.854996
vn -0.1373 0.0495 -0.9893
vn -0.0429 -0.2607 -0.9645
vn -0.1822 -0.4108 -0.8934
vn -0.0000 -0.0000 -1.0000
vn 0.1768 -0.3994 -0.8996
vn -0.0181 0.1703 -0.9852
vn 0.1293 0.0380 -0.9909
vn 0.7036 0.0673 -0.7074
vn 0.6535 0.4198 -0.6299
vn -0.1229 0.0246 -0.9921
vn -0.7036 0.0673 -0.7075
vn -0.2282 -0.9440 -0.2383
vn 0.3401 -0.8939 0.2920
vn -0.5250 -0.0274 -0.8507
vn -0.5204 0.2347 -0.8210
vn -0.6667 0.1076 -0.7375
vn -0.3704 -0.1715 -0.9129
vn -0.3967 -0.1338 -0.9081
vn -0.4672 -0.2681 -0.8425
vn -0.4308 0.1464 -0.8905
vn -0.7254 -0.1145 -0.6787
vn -0.2872 -0.0746 -0.9550
vn -0.5802 -0.1545 -0.7997
vn 0.5536 0.1036 -0.8263
vn 0.5204 0.2347 -0.8210
vn 0.4308 0.1464 -0.8905
vn 0.5181 0.2172 -0.8273
vn 0.3704 -0.1715 -0.9129
vn 0.4662 -0.2680 -0.8431
vn 0.5467 -0.0190 -0.8371
vn 0.3272 0.3689 -0.8700
vn 0.2870 -0.0749 -0.9550
vn 0.3967 -0.1338 -0.9081
vn -0.2345 0.3873 -0.8916
vn -0.6586 -0.1104 -0.7443
vn 0.5677 0.7981 -0.2017
vn -0.0891 0.9960 0.0050
vn -0.3155 0.9488 -0.0147
vn -0.0705 0.8914 -0.4478
vn 0.0806 0.9967 0.0101
vn 0.0479 0.1997 -0.9787
vn -0.1068 -0.4011 -0.9098
vn -0.3400 -0.8940 0.2920
vn 0.2663 -0.0689 -0.9614
vn -0.0458 -0.3455 -0.9373
vn -0.3040 -0.0024 -0.9527
vn 0.0473 -0.3839 -0.9222
vn 0.7106 -0.7004 -0.0666
vn -0.6566 -0.0221 -0.7539
vn 0.6589 0.0278 -0.7517
vn -0.7106 -0.7004 -0.0666
vt 0.625000 0.250000
vt 0.000000 0.000000
vt 0.625000 0.250000
vt 0.625000 0.250000
vt 0.625000 0.252305
vt 0.625000 0.252305
vt 0.625000 0.250000
vt 0.625000 0.256154
vt 0.625000 0.256154
s 1
usemtl Material.002
f 13/1/1 15/1/2 11/1/3
s 0
f 22/2/4 21/2/4 13/2/4
s 1
f 12/1/5 18/1/6 14/1/7
f 21/1/8 44/1/9 42/1/10
f 22/1/11 43/1/12 26/1/13
f 29/3/14 8/1/15 30/1/16
f 30/1/16 5/1/17 31/3/18
f 29/3/14 3/1/19 7/1/20
f 33/1/21 13/1/1 11/1/3
f 34/1/22 5/1/17 13/1/1
f 33/1/21 3/1/19 32/4/23
f 36/1/24 9/1/25 10/1/26
f 35/1/27 6/1/28 9/1/25
f 36/1/24 4/1/29 38/4/30
f 40/1/31 14/1/7 39/1/32
f 39/1/32 6/1/28 37/3/33
f 40/1/31 4/1/29 12/1/5
f 41/1/34 46/5/35 45/6/36
f 42/1/10 23/1/37 41/1/34
f 43/1/12 27/1/38 44/1/9
f 44/1/9 24/7/39 42/1/10
f 43/1/12 23/1/37 28/1/40
f 13/1/1 17/1/41 15/1/2
s 0
f 21/2/4 17/2/4 13/2/4
f 13/2/4 14/2/4 22/2/4
f 14/2/4 18/2/4 22/2/4
s 1
f 12/1/5 16/1/42 18/1/6
f 21/1/8 25/1/43 44/1/9
f 11/1/3 15/1/2 16/1/42
f 22/1/11 41/1/34 43/1/12
f 29/3/14 7/1/20 8/1/15
f 30/1/16 8/1/15 5/1/17
f 29/3/14 32/4/23 3/1/19
f 33/1/21 34/1/22 13/1/1
f 34/1/22 31/3/18 5/1/17
f 33/1/21 11/1/3 3/1/19
f 36/1/24 35/1/27 9/1/25
f 35/1/27 37/3/33 6/1/28
f 36/1/24 10/1/26 4/1/29
f 40/1/31 12/1/5 14/1/7
f 39/1/32 14/1/7 6/1/28
f 40/1/31 38/4/30 4/1/29
f 42/1/10 24/7/39 23/1/37
f 43/1/12 28/1/40 27/1/38
f 44/1/9 27/1/38 24/7/39
f 43/1/12 41/1/34 23/1/37
f 41/1/34 45/6/36 42/1/10
f 41/1/34 47/8/44 46/5/35
f 47/8/44 19/1/45 48/9/46
f 19/1/45 45/6/36 48/9/46
f 41/1/34 20/1/47 47/8/44
f 11/1/3 16/1/42 12/1/5
f 19/1/45 42/1/10 45/6/36
f 44/1/9 26/1/13 43/1/12
f 44/1/9 25/1/43 26/1/13
f 47/8/44 20/1/47 19/1/45
s 0
f 22/1/48 26/1/49 25/1/50 21/1/51
