# Blender 4.3.2
# www.blender.org
mtllib ship.mtl
o Cube.001
v 1.322453 0.400423 -0.007233
v 1.411626 0.607164 -0.007233
v 1.411626 0.607164 -0.314402
v 1.322453 0.400423 -0.314402
v 0.180841 0.017176 1.000000
v 0.250678 -0.030986 1.000000
v 0.434985 0.144679 -1.000000
v 0.602965 -0.002172 -1.000000
v 0.250678 -0.118816 1.000000
v 0.602965 -0.269971 -1.000000
v 1.639579 -0.209479 -0.314402
v 1.639579 -0.078150 -0.314402
v 0.715264 -0.001298 0.333333
v 0.715264 -0.001298 -0.333334
v 1.639579 -0.209479 -0.007233
v 1.639579 -0.078150 -0.007233
v 0.515998 0.155003 -0.333333
v 0.515998 0.155003 0.333333
v 1.322453 -0.282131 -0.314402
v 1.322453 -0.282131 -0.007233
v 0.715264 -0.286331 0.333333
v 0.715264 -0.286331 -0.333334
v 1.322453 -0.078150 -0.314402
v 1.322453 -0.078150 -0.007233
v 1.322453 -0.001298 0.000216
v 1.322453 -0.001298 -0.321851
v 1.322453 -0.286331 0.000216
v 1.322453 -0.286331 -0.321851
v 0.000000 -0.030986 1.000000
v -0.000000 0.144679 -1.000000
v 0.000000 -0.001298 -1.000000
v 0.000000 0.017176 1.000000
v 0.000000 -0.118816 1.000000
v 0.000000 -0.286331 -1.000000
v 0.000000 -0.286331 0.333333
v 0.000000 -0.286331 -0.333333
v 0.000000 0.155003 0.333333
v 0.000000 0.155003 -0.333333
v -1.322453 0.400423 -0.007232
v -1.411626 0.607164 -0.007232
v -1.411626 0.607164 -0.314401
v -1.322453 0.400423 -0.314401
v -0.180841 0.017176 1.000000
v -0.250677 -0.030986 1.000000
v -0.434985 0.144679 -1.000000
v -0.602966 -0.002172 -1.000000
v -0.250677 -0.118816 1.000000
v -0.602966 -0.269971 -1.000000
v -1.639579 -0.209479 -0.314401
v -1.639579 -0.078150 -0.314401
v -0.715264 -0.001298 0.333334
v -0.715264 -0.001298 -0.333333
v -1.639579 -0.209479 -0.007232
v -1.639579 -0.078150 -0.007232
v -0.515998 0.155003 -0.333333
v -0.515998 0.155003 0.333333
v -1.322453 -0.282131 -0.314401
v -1.322453 -0.282131 -0.007232
v -0.715264 -0.286331 0.333334
v -0.715264 -0.286331 -0.333333
v -1.322453 -0.078150 -0.314401
v -1.322453 -0.078150 -0.007232
v -1.322453 -0.001298 0.000216
v -1.322453 -0.001298 -0.321850
v -1.322453 -0.286331 0.000216
v -1.322453 -0.286331 -0.321850
v 0.000000 0.000000 0.000000
v 0.000000 0.000000 0.000000
v 0.000000 0.000000 0.000000
v 0.000000 0.000000 0.000000
v 0.000000 0.000000 0.000000
v 0.000000 0.000000 0.000000
v 0.000000 0.000000 0.000000
v 0.000000 0.000000 0.000000
v -0.091533 0.010879 -1.080510
v -0.000000 0.078916 -0.995752
v -0.129447 -0.080654 -1.080510
v 0.112833 0.032179 -0.995752
v -0.091533 -0.172187 -1.080510
v 0.159570 -0.080654 -0.995752
v -0.000000 -0.210101 -1.080510
v 0.112833 -0.193488 -0.995752
v 0.091533 -0.172187 -1.080510
v -0.000000 -0.240225 -0.995752
v 0.129447 -0.080654 -1.080510
v -0.112833 -0.193488 -0.995752
v 0.091533 0.010879 -1.080510
v -0.159571 -0.080654 -0.995752
v -0.000000 0.048793 -1.080510
v -0.112833 0.032179 -0.995752
v -0.000000 0.048793 -1.122121
v -0.000000 0.078916 -1.094291
v 0.091533 0.010879 -1.122121
v 0.112833 0.032179 -1.094291
v 0.129447 -0.080654 -1.122121
v 0.159570 -0.080654 -1.094291
v 0.091533 -0.172187 -1.122121
v 0.112833 -0.193488 -1.094291
v -0.000000 -0.210101 -1.122121
v -0.000000 -0.240225 -1.094291
v -0.091533 -0.172187 -1.122121
v -0.112833 -0.193488 -1.094291
v -0.129447 -0.080654 -1.122121
v -0.159571 -0.080654 -1.094291
v -0.091533 0.010879 -1.122121
v -0.112833 0.032179 -1.094291
vn -0.0000 1.0000 -0.0077
vn -0.0000 1.0000 -0.0074
vn -0.0000 0.9999 -0.0155
vn -0.0000 -0.0000 -1.0000
vn 0.6024 0.7777 0.1798
vn 0.5946 0.7704 0.2302
vn 0.5490 0.7226 0.4201
vn 0.8204 -0.0000 0.5717
vn 0.9871 0.1599 -0.0000
vn 0.9489 0.3156 -0.0000
vn 0.2233 -0.9747 -0.0000
vn 1.0000 -0.0000 -0.0000
vn -0.9182 0.3961 -0.0000
vn -0.0000 -0.0000 1.0000
vn 0.9861 -0.0000 -0.1661
vn -0.0000 -0.9978 0.0662
vn 0.0038 -1.0000 -0.0041
vn -0.0000 -1.0000 -0.0000
vn 0.6335 0.7675 -0.0983
vn 0.6264 0.7779 -0.0505
vn 0.6258 0.7786 -0.0471
vn -0.0000 0.9793 0.2025
vn -0.0000 0.9964 0.0844
vn -0.0000 0.9948 0.1018
vn 0.0189 -0.0000 -0.9998
vn -0.0000 1.0000 -0.0000
vn 0.4810 -0.0000 0.8767
vn -0.0000 -0.9924 0.1228
vn -0.0000 -1.0000 -0.0067
vn -0.0000 -0.9699 0.2437
vn -0.0000 -0.9999 -0.0133
vn 0.0124 -0.9998 -0.0133
vn -1.0000 -0.0000 -0.0000
vn -0.6024 0.7777 0.1798
vn -0.5490 0.7226 0.4201
vn -0.5946 0.7704 0.2302
vn -0.8204 -0.0000 0.5717
vn -0.9871 0.1599 -0.0000
vn -0.9489 0.3156 -0.0000
vn -0.2233 -0.9747 -0.0000
vn 0.9182 0.3961 -0.0000
vn -0.9861 -0.0000 -0.1661
vn -0.0038 -1.0000 -0.0041
vn -0.6335 0.7675 -0.0983
vn -0.6258 0.7786 -0.0471
vn -0.6264 0.7779 -0.0505
vn -0.0189 -0.0000 -0.9998
vn -0.4810 -0.0000 0.8767
vn -0.0124 -0.9998 -0.0133
vn -0.3827 0.9239 -0.0000
vn 0.9239 -0.3827 -0.0000
vn 0.3827 -0.9239 -0.0000
vn -0.3827 -0.9239 -0.0000
vn -0.9239 -0.3827 -0.0000
vn -0.9239 0.3827 -0.0000
vn 0.9239 0.3827 -0.0000
vn 0.3827 0.9239 -0.0000
vn 0.2706 0.6533 -0.7071
vn 0.6533 0.2706 -0.7071
vn 0.6533 -0.2706 -0.7071
vn 0.2706 -0.6533 -0.7071
vn -0.2706 -0.6533 -0.7071
vn -0.6533 -0.2706 -0.7071
vn -0.6533 0.2706 -0.7071
vn -0.2706 0.6533 -0.7071
vt 0.750000 0.666667
vt 0.875000 0.666667
vt 0.875000 0.750000
vt 0.750000 0.750000
vt 0.375000 0.875000
vt 0.625000 0.875000
vt 0.625000 1.000000
vt 0.375000 1.000000
vt 0.375000 0.166667
vt 0.625000 0.166667
vt 0.625000 0.250000
vt 0.375000 0.250000
vt 0.375000 0.083333
vt 0.125000 0.583333
vt 0.125000 0.666667
vt 0.375000 0.000000
vt 0.625000 0.000000
vt 0.625000 0.083333
vt 0.750000 0.500000
vt 0.875000 0.500000
vt 0.875000 0.583333
vt 0.750000 0.583333
vt 0.250000 0.583333
vt 0.250000 0.666667
vt 0.125000 0.500000
vt 0.250000 0.500000
vt 0.375000 0.375000
vt 0.250000 0.750000
vt 0.125000 0.750000
vt 0.625000 0.375000
vt 0.625000 0.500000
vt 0.375000 0.500000
vt 0.625000 0.750000
vt 0.375000 0.750000
vt 0.125000 0.610116
vt 0.125000 1.000000
vt 0.000000 1.000000
vt 0.000000 0.610116
vt 0.750000 0.610116
vt 0.750000 1.000000
vt 0.625000 0.610116
vt 0.625000 0.610116
vt 0.500000 1.000000
vt 0.500000 0.610116
vt 0.500000 0.610116
vt 0.375000 0.610116
vt 0.375000 0.610116
vt 0.250000 1.000000
vt 0.250000 0.610116
vt 0.250000 0.610116
vt 0.125000 0.610116
vt 0.419706 0.419706
vt 0.250000 0.490000
vt 0.080294 0.419706
vt 0.010000 0.250000
vt 0.080294 0.080294
vt 0.250000 0.010000
vt 0.419706 0.080294
vt 0.490000 0.250000
vt 0.875000 0.610116
vt 0.875000 1.000000
vt 0.750000 0.610116
vt 1.000000 0.610116
vt 1.000000 1.000000
vt 0.875000 0.610116
vt 0.750000 0.490000
vt 0.919706 0.419706
vt 0.887669 0.387669
vt 0.750000 0.444693
vt 0.990000 0.250000
vt 0.944693 0.250000
vt 0.919706 0.080294
vt 0.887669 0.112331
vt 0.750000 0.010000
vt 0.750000 0.055307
vt 0.580294 0.080294
vt 0.612331 0.112331
vt 0.510000 0.250000
vt 0.555307 0.250000
vt 0.580294 0.419706
vt 0.612331 0.387669
s 1
usemtl Material.001
f 38/1/1 17/2/2 7/3/3 30/4/3
f 31/5/4 30/6/4 7/7/4 8/8/4
f 13/9/5 18/10/6 5/11/7 6/12/7
f 13/9/8 6/12/8 9/12/8 21/9/8
f 16/9/9 12/13/9 3/13/10 2/9/10
f 20/14/11 19/15/11 11/15/11 15/14/11
f 12/13/9 16/9/9 15/9/12 11/13/12
f 31/5/4 8/8/4 10/8/4 34/5/4
f 4/13/13 1/9/13 2/9/13 3/13/13
f 26/13/12 25/9/12 24/9/12 23/13/12
f 19/13/4 23/13/4 12/13/4 11/13/4
f 24/9/14 20/9/14 15/9/14 16/9/14
f 25/9/12 27/9/12 20/9/12 24/9/12
f 8/16/15 14/13/15 22/13/15 10/16/15
f 21/14/16 22/15/17 28/15/18 27/14/18
f 8/16/19 7/17/19 17/18/20 14/13/21
f 14/13/21 17/18/20 18/10/6 13/9/5
f 32/19/22 5/20/22 18/21/23 37/22/24
f 37/22/24 18/21/23 17/2/2 38/1/1
f 28/13/12 26/13/12 23/13/12 19/13/12
f 22/13/25 14/13/25 26/13/25 28/13/25
f 14/13/26 13/9/26 25/9/26 26/13/26
f 13/9/27 21/9/27 27/9/27 25/9/27
f 27/14/12 28/15/12 19/15/12 20/14/12
f 24/9/14 16/9/14 2/9/14 1/9/14
f 21/14/16 35/23/28 36/24/29 22/15/17
f 9/25/30 33/26/30 35/23/28 21/14/16
f 12/13/4 23/13/4 4/13/4 3/13/4
f 6/12/14 29/27/14 33/27/14 9/12/14
f 22/15/17 36/24/29 34/28/31 10/29/32
f 6/12/14 5/11/14 32/30/14 29/27/14
f 23/13/33 24/9/33 1/9/33 4/13/33
f 38/1/1 30/4/3 45/3/3 55/2/2
f 31/5/4 46/8/4 45/7/4 30/6/4
f 51/9/34 44/12/35 43/11/35 56/10/36
f 51/9/37 59/9/37 47/12/37 44/12/37
f 54/9/38 40/9/39 41/13/39 50/13/38
f 58/14/40 53/14/40 49/15/40 57/15/40
f 50/13/38 49/13/33 53/9/33 54/9/38
f 31/5/4 34/5/4 48/8/4 46/8/4
f 42/13/41 41/13/41 40/9/41 39/9/41
f 64/13/33 61/13/33 62/9/33 63/9/33
f 57/13/4 49/13/4 50/13/4 61/13/4
f 62/9/14 54/9/14 53/9/14 58/9/14
f 63/9/33 62/9/33 58/9/33 65/9/33
f 46/16/42 48/16/42 60/13/42 52/13/42
f 59/14/16 65/14/18 66/15/18 60/15/43
f 46/16/44 52/13/45 55/18/46 45/17/44
f 52/13/45 51/9/34 56/10/36 55/18/46
f 32/19/22 37/22/24 56/21/23 43/20/22
f 37/22/24 38/1/1 55/2/2 56/21/23
f 66/13/33 57/13/33 61/13/33 64/13/33
f 60/13/47 66/13/47 64/13/47 52/13/47
f 52/13/26 64/13/26 63/9/26 51/9/26
f 51/9/48 63/9/48 65/9/48 59/9/48
f 65/14/33 58/14/33 57/15/33 66/15/33
f 62/9/14 39/9/14 40/9/14 54/9/14
f 59/14/16 60/15/43 36/24/29 35/23/28
f 47/25/30 59/14/16 35/23/28 33/26/30
f 50/13/4 41/13/4 42/13/4 61/13/4
f 44/12/14 47/12/14 33/27/14 29/27/14
f 60/15/43 48/29/49 34/28/31 36/24/29
f 44/12/14 29/27/14 32/30/14 43/11/14
f 61/13/12 42/13/12 39/9/12 62/9/12
s 0
f 67/16/14 68/17/14 70/11/14 69/12/14
f 69/12/14 70/11/14 74/31/14 73/32/14
f 73/32/14 74/31/14 72/33/14 71/34/14
f 71/34/14 72/33/14 68/7/14 67/8/14
f 69/25/14 73/32/14 71/34/14 67/29/14
f 74/31/14 70/20/14 68/3/14 72/33/14
f 106/35/50 90/36/50 76/37/50 92/38/50
f 96/39/51 80/40/51 82/7/51 98/41/51
f 98/42/52 82/7/52 84/43/52 100/44/52
f 100/45/53 84/43/53 86/8/53 102/46/53
f 102/47/54 86/8/54 88/48/54 104/49/54
f 104/50/55 88/48/55 90/36/55 106/51/55
f 78/52/14 76/53/14 90/54/14 88/55/14 86/56/14 84/57/14 82/58/14 80/59/14
f 94/60/56 78/61/56 80/40/56 96/62/56
f 92/63/57 76/64/57 78/61/57 94/65/57
f 92/66/58 94/67/58 93/68/58 91/69/58
f 94/67/59 96/70/59 95/71/59 93/68/59
f 96/70/60 98/72/60 97/73/60 95/71/60
f 98/72/61 100/74/61 99/75/61 97/73/61
f 100/74/62 102/76/62 101/77/62 99/75/62
f 102/76/63 104/78/63 103/79/63 101/77/63
f 104/78/64 106/80/64 105/81/64 103/79/64
f 106/80/65 92/66/65 91/69/65 105/81/65
f 99/75/57 101/77/57 79/77/57 81/75/57
f 95/71/55 97/73/55 83/73/55 85/71/55
f 101/77/56 103/79/56 77/79/56 79/77/56
f 91/69/53 93/68/53 87/68/53 89/69/53
f 105/81/52 91/69/52 89/69/52 75/81/52
f 97/73/50 99/75/50 81/75/50 83/73/50
f 103/79/51 105/81/51 75/81/51 77/79/51
f 93/68/54 95/71/54 85/71/54 87/68/54
