# Blender 4.3.2
# www.blender.org
mtllib ship.mtl
o Cube.001
v 1.322453 0.339520 -0.137353
v 1.411626 0.546261 -0.313313
v 1.365425 0.546261 -0.314447
v 1.377267 0.339520 -0.314402
v 0.180841 -0.019742 1.000000
v 0.250678 -0.030986 1.000000
v 0.434985 0.144679 -1.000000
v 0.602965 -0.002172 -1.000000
v 0.250678 -0.118816 1.000000
v 0.583939 -0.251169 -1.000000
v 1.639579 -0.270382 -0.393760
v 1.639579 -0.139053 -0.393760
v 0.715264 -0.001298 0.275899
v 0.715264 0.000276 -0.193697
v 1.639579 -0.270382 -0.136189
v 1.639579 -0.139053 -0.136189
v 0.515998 0.155003 -0.333333
v 0.515998 0.155003 0.333333
v 1.322453 -0.343034 -0.314402
v 1.322453 -0.343034 -0.007233
v 0.618147 -0.286331 0.275899
v 0.715264 -0.284757 -0.193697
v 1.322453 -0.139053 -0.314402
v 1.322453 -0.139053 -0.007233
v 1.322453 -0.062201 0.000216
v 1.322453 -0.062201 -0.321851
v 1.322453 -0.347234 0.000216
v 1.322453 -0.347234 -0.321851
v 0.000000 -0.030986 1.090468
v 0.000000 -0.019742 1.090468
v 0.000000 -0.118816 1.090468
v 0.000000 -0.286331 -1.000000
v 0.000000 -0.313693 0.333333
v -1.322453 0.339520 -0.137352
v -1.388525 0.546261 -0.319835
v -1.388525 0.546261 -0.314446
v -1.377267 0.339520 -0.314401
v -0.180841 -0.019742 1.000000
v -0.250677 -0.030986 1.000000
v -0.434985 0.144679 -1.000000
v -0.602966 -0.002172 -1.000000
v -0.250677 -0.118816 1.000000
v -0.583940 -0.251169 -1.000000
v -1.639579 -0.270382 -0.393759
v -1.639579 -0.139053 -0.393759
v -0.715264 -0.001298 0.275900
v -0.715264 0.000276 -0.193696
v -1.639579 -0.270382 -0.142801
v -1.639579 -0.139053 -0.142801
v -0.515998 0.155003 -0.333333
v -0.515998 0.155003 0.333333
v -1.322453 -0.343034 -0.314401
v -1.322453 -0.343034 -0.007232
v -0.618147 -0.286331 0.275900
v -0.715264 -0.284757 -0.193696
v -1.322453 -0.139053 -0.314401
v -1.322453 -0.139053 -0.007232
v -1.322453 -0.062201 0.000216
v -1.322453 -0.062201 -0.321850
v -1.322453 -0.347234 0.000216
v -1.322453 -0.347234 -0.321850
v 0.000000 0.000000 0.000000
v 0.000000 0.000000 0.000000
v 0.000000 0.000000 0.000000
v 0.000000 0.000000 0.000000
v 0.000000 0.000000 0.000000
v 0.000000 0.000000 0.000000
v 0.000000 0.000000 0.000000
v 0.000000 0.000000 0.000000
v -0.091533 0.010879 -1.080510
v 0.000000 0.078916 -0.995752
v -0.129447 -0.080654 -1.080510
v 0.112833 0.032179 -0.995752
v -0.091533 -0.172187 -1.080510
v 0.159570 -0.080654 -0.995752
v 0.000000 -0.210101 -1.080510
v 0.112833 -0.193488 -0.995752
v 0.091533 -0.172187 -1.080510
v 0.000000 -0.240225 -0.995752
v 0.129447 -0.080654 -1.080510
v -0.112833 -0.193488 -0.995752
v 0.091533 0.010879 -1.080510
v -0.159571 -0.080654 -0.995752
v 0.000000 0.048793 -1.080510
v -0.112833 0.032179 -0.995752
v 0.000000 0.048793 -1.122121
v 0.000000 0.078916 -1.094291
v 0.091533 0.010879 -1.122121
v 0.112833 0.032179 -1.094291
v 0.129447 -0.080654 -1.122121
v 0.159570 -0.080654 -1.094291
v 0.091533 -0.172187 -1.122121
v 0.112833 -0.193488 -1.094291
v 0.000000 -0.210101 -1.122121
v 0.000000 -0.240225 -1.094291
v -0.091533 -0.172187 -1.122121
v -0.112833 -0.193488 -1.094291
v -0.129447 -0.080654 -1.122121
v -0.159571 -0.080654 -1.094291
v -0.091533 0.010879 -1.122121
v -0.112833 0.032179 -1.094291
v 0.136381 0.023638 0.918050
v 0.389140 0.127580 0.415283
v -0.000000 0.023638 0.918050
v -0.136381 0.023638 0.918050
v -0.389140 0.127580 0.415283
vn -1.0000 -0.0000 -0.0000
vn 1.0000 -0.0000 -0.0000
vn 0.6026 0.7839 0.1493
vn 0.5852 0.7697 0.2551
vn 0.5427 0.7280 0.4191
vn 0.8371 -0.2180 0.5017
vn 0.9851 0.1534 -0.0775
vn 0.9835 0.1614 -0.0815
vn 0.9297 0.3287 -0.1660
vn 0.2233 -0.9747 -0.0000
vn -0.9853 0.1640 -0.0476
vn -0.0175 0.9923 0.1228
vn -0.0888 0.9548 0.2835
vn -0.0000 0.9586 0.2847
vn -0.0234 0.9505 0.3099
vn 0.4253 0.1521 0.8922
vn 0.3767 -0.0000 0.9263
vn 0.4238 0.1468 0.8938
vn 0.0175 0.9923 0.1228
vn 0.0234 0.9505 0.3099
vn 0.9881 -0.0352 -0.1500
vn 0.0129 -0.9985 0.0525
vn -0.0186 -0.9996 -0.0202
vn -0.0979 -0.9951 -0.0140
vn 0.6526 0.7521 -0.0922
vn 0.6410 0.7650 -0.0614
vn 0.6277 0.7779 -0.0284
vn 0.0888 0.9548 0.2835
vn -0.2065 -0.0000 -0.9784
vn 0.1017 0.9948 0.0020
vn 0.3816 -0.0650 0.9220
vn 0.4647 0.3100 0.8294
vn 0.0736 -0.9643 0.2542
vn -0.0000 -0.9670 0.2549
vn -0.0000 -0.9923 0.1239
vn 0.3414 0.1589 0.9264
vn -0.0000 0.4487 0.8937
vn -0.0000 -0.0000 1.0000
vn 0.3395 -0.0000 0.9406
vn 0.2474 0.7685 0.5901
vn -0.0000 0.7931 0.6091
vn -0.9928 0.0416 -0.1124
vn -0.0000 -0.0000 -1.0000
vn -0.6026 0.7839 0.1493
vn -0.5427 0.7279 0.4191
vn -0.5852 0.7697 0.2551
vn -0.8371 -0.2180 0.5017
vn -0.9871 0.1603 -0.0000
vn -0.9390 0.3440 -0.0000
vn -0.9857 0.1684 -0.0000
vn -0.2233 -0.9747 -0.0000
vn 0.9517 0.0438 -0.3039
vn -0.2554 0.0107 -0.9668
vn -0.4503 0.1571 0.8789
vn -0.4482 0.1506 0.8812
vn -0.3931 -0.0000 0.9195
vn -0.9881 -0.0352 -0.1499
vn -0.0129 -0.9985 0.0525
vn 0.0979 -0.9951 -0.0140
vn 0.0186 -0.9996 -0.0202
vn -0.6526 0.7521 -0.0922
vn -0.6277 0.7779 -0.0284
vn -0.6410 0.7650 -0.0614
vn -0.0000 1.0000 -0.0074
vn 0.2471 0.0160 -0.9689
vn 0.2065 -0.0000 -0.9784
vn -0.1017 0.9948 0.0020
vn -0.3816 -0.0650 0.9220
vn -0.4969 0.3201 0.8067
vn -0.0000 -0.9997 -0.0246
vn 0.0381 -0.9990 -0.0246
vn -0.0736 -0.9643 0.2542
vn -0.3414 0.1589 0.9264
vn -0.3395 -0.0000 0.9406
vn -0.2474 0.7685 0.5901
vn 0.9928 0.0416 -0.1124
vn -0.3827 0.9239 -0.0000
vn 0.9239 -0.3827 -0.0000
vn 0.3827 -0.9239 -0.0000
vn -0.3827 -0.9239 -0.0000
vn -0.9239 -0.3827 -0.0000
vn -0.9239 0.3827 -0.0000
vn 0.9239 0.3827 -0.0000
vn 0.3827 0.9239 -0.0000
vn 0.2706 0.6533 -0.7071
vn 0.6533 0.2706 -0.7071
vn 0.6533 -0.2706 -0.7071
vn 0.2706 -0.6533 -0.7071
vn -0.2706 -0.6533 -0.7071
vn -0.6533 -0.2706 -0.7071
vn -0.6533 0.2706 -0.7071
vn -0.2706 0.6533 -0.7071
vn -0.0381 -0.9990 -0.0246
vn -0.0000 0.9793 0.2025
vt 0.125000 0.583333
vt 0.375000 0.083333
vt 0.125000 0.666667
vt 0.375000 0.166667
vt 0.625000 0.166667
vt 0.625000 0.250000
vt 0.375000 0.250000
vt 0.625000 0.375000
vt 0.875000 0.583333
vt 0.375000 0.000000
vt 0.625000 0.000000
vt 0.625000 0.083333
vt 0.125000 0.500000
vt 0.250000 0.500000
vt 0.250000 0.583333
vt 0.375000 0.375000
vt 0.375000 0.875000
vt 0.375000 1.000000
vt 0.625000 1.000000
vt 0.875000 0.750000
vt 0.875000 0.666667
vt 0.250000 0.750000
vt 0.125000 0.750000
vt 0.625000 0.500000
vt 0.375000 0.500000
vt 0.625000 0.750000
vt 0.375000 0.750000
vt 0.875000 0.500000
vt 0.125000 0.610116
vt 0.125000 1.000000
vt 0.000000 1.000000
vt 0.000000 0.610116
vt 0.750000 0.610116
vt 0.750000 1.000000
vt 0.625000 0.610116
vt 0.500000 1.000000
vt 0.500000 0.610116
vt 0.375000 0.610116
vt 0.250000 1.000000
vt 0.250000 0.610116
vt 0.419706 0.419706
vt 0.250000 0.490000
vt 0.080294 0.419706
vt 0.010000 0.250000
vt 0.080294 0.080294
vt 0.250000 0.010000
vt 0.419706 0.080294
vt 0.490000 0.250000
vt 0.875000 0.610116
vt 0.875000 1.000000
vt 1.000000 0.610116
vt 1.000000 1.000000
vt 0.750000 0.490000
vt 0.919706 0.419706
vt 0.887669 0.387669
vt 0.750000 0.444693
vt 0.990000 0.250000
vt 0.944693 0.250000
vt 0.919706 0.080294
vt 0.887669 0.112331
vt 0.750000 0.010000
vt 0.750000 0.055307
vt 0.580294 0.080294
vt 0.612331 0.112331
vt 0.510000 0.250000
vt 0.555307 0.250000
vt 0.580294 0.419706
vt 0.612331 0.387669
s 1
usemtl Material.001
f 53/1/1 52/2/1 56/2/1 59/2/1 61/3/1 60/4/1 58/4/1 57/4/1
f 27/1/2 28/3/2 19/3/2 20/4/2 24/4/2 25/4/2
f 13/4/3 18/5/4 5/6/5 6/7/5
f 13/4/6 6/7/6 9/7/6 21/4/6
f 16/4/7 12/2/8 3/2/9 2/4/9
f 20/1/10 19/3/10 11/3/10 15/1/10
f 12/2/8 16/4/7 15/4/2 11/2/2
f 4/2/11 1/4/11 2/4/11 3/2/11
f 51/5/12 38/6/13 30/8/14 104/8/14 105/6/13 106/5/15
f 24/4/16 20/4/17 15/4/17 16/4/18
f 18/9/19 51/9/12 106/9/15 103/9/20
f 8/10/21 14/2/21 22/2/21 10/10/21
f 21/1/22 22/3/23 28/3/24 27/1/24
f 8/10/25 7/11/25 17/12/26 14/2/27
f 14/2/27 17/12/26 18/5/4 13/4/3
f 30/8/14 5/6/28 18/5/19 103/5/20 102/6/28 104/8/14
f 28/2/2 26/2/2 25/4/2 24/4/2 23/2/2 19/2/2
f 22/2/29 14/2/29 26/2/29 28/2/29
f 14/2/30 13/4/30 25/4/30 26/2/30
f 13/4/31 21/4/31 27/4/31 25/4/31
f 24/4/16 16/4/18 2/4/32 1/4/32
f 9/13/33 31/14/34 33/15/35 21/1/22
f 6/7/36 29/16/37 31/16/38 9/7/39
f 6/7/36 5/6/40 30/8/41 29/16/37
f 23/2/42 24/4/42 1/4/42 4/2/42
f 32/17/43 43/18/43 41/18/43 40/19/43 7/19/43 8/18/43 10/18/43
f 46/4/44 39/7/45 38/6/45 51/5/46
f 46/4/47 54/4/47 42/7/47 39/7/47
f 49/4/48 35/4/49 36/2/49 45/2/50
f 53/1/51 48/1/51 44/3/51 52/3/51
f 45/2/50 44/2/1 48/4/1 49/4/48
f 37/2/52 36/2/52 35/4/52 34/4/52
f 59/2/1 56/2/1 57/4/1 58/4/1
f 23/2/53 4/2/53 3/2/53 12/2/53 11/2/53 19/2/53
f 57/4/54 49/4/55 48/4/56 53/4/56
f 41/10/57 43/10/57 55/2/57 47/2/57
f 54/1/58 60/1/59 61/3/59 55/3/60
f 41/10/61 47/2/62 50/12/63 40/11/61
f 47/2/62 46/4/44 51/5/46 50/12/63
f 7/20/64 40/20/64 50/21/64 51/9/12 18/9/19 17/21/64
f 45/2/65 36/2/65 37/2/65 56/2/65 52/2/65 44/2/65
f 55/2/66 61/2/66 59/2/66 47/2/66
f 47/2/67 59/2/67 58/4/67 46/4/67
f 46/4/68 58/4/68 60/4/68 54/4/68
f 57/4/54 34/4/69 35/4/69 49/4/55
f 33/15/35 32/22/70 10/23/71 22/3/23 21/1/22
f 42/13/72 54/1/58 33/15/35 31/14/34
f 39/7/73 42/7/74 31/16/38 29/16/37
f 39/7/73 29/16/37 30/8/41 38/6/75
f 56/2/76 37/2/76 34/4/76 57/4/76
s 0
f 62/10/38 63/11/38 65/6/38 64/7/38
f 64/7/38 65/6/38 69/24/38 68/25/38
f 68/25/38 69/24/38 67/26/38 66/27/38
f 66/27/38 67/26/38 63/19/38 62/18/38
f 64/13/38 68/25/38 66/27/38 62/23/38
f 69/24/38 65/28/38 63/20/38 67/26/38
s 1
f 101/29/77 85/30/77 71/31/77 87/32/77
f 91/33/78 75/34/78 77/19/78 93/35/78
f 93/35/79 77/19/79 79/36/79 95/37/79
f 95/37/80 79/36/80 81/18/80 97/38/80
f 97/38/81 81/18/81 83/39/81 99/40/81
f 99/40/82 83/39/82 85/30/82 101/29/82
f 73/41/38 71/42/38 85/43/38 83/44/38 81/45/38 79/46/38 77/47/38 75/48/38
f 89/49/83 73/50/83 75/34/83 91/33/83
f 87/51/84 71/52/84 73/50/84 89/49/84
f 87/53/85 89/54/85 88/55/85 86/56/85
f 89/54/86 91/57/86 90/58/86 88/55/86
f 91/57/87 93/59/87 92/60/87 90/58/87
f 93/59/88 95/61/88 94/62/88 92/60/88
f 95/61/89 97/63/89 96/64/89 94/62/89
f 97/63/90 99/65/90 98/66/90 96/64/90
f 99/65/91 101/67/91 100/68/91 98/66/91
f 101/67/92 87/53/92 86/56/92 100/68/92
f 94/62/84 96/64/84 74/64/84 76/62/84
f 90/58/82 92/60/82 78/60/82 80/58/82
f 96/64/83 98/66/83 72/66/83 74/64/83
f 86/56/80 88/55/80 82/55/80 84/56/80
f 100/68/79 86/56/79 84/56/79 70/68/79
f 92/60/77 94/62/77 76/62/77 78/60/77
f 98/66/78 100/68/78 70/68/78 72/66/78
f 88/55/81 90/58/81 80/58/81 82/55/81
f 55/3/60 43/23/93 32/22/70 33/15/35 54/1/58
f 103/5/20 106/5/15 105/6/94 104/8/94 102/6/94
